<?xml version="1.0" encoding="UTF-8"?><svg id="b" xmlns="http://www.w3.org/2000/svg" xmlns:xlink="http://www.w3.org/1999/xlink" viewBox="0 0 316.32 96.27"><defs><linearGradient id="d" x1="26.59" y1="34.65" x2="57.66" y2="34.65" gradientUnits="userSpaceOnUse"><stop offset="0" stop-color="#414042"/><stop offset="1" stop-color="#414042"/></linearGradient><linearGradient id="e" x1="26.23" y1="34.7" x2="57.92" y2="34.7" gradientUnits="userSpaceOnUse"><stop offset="0" stop-color="#fff"/><stop offset=".5" stop-color="#fff"/></linearGradient><linearGradient id="f" x1="95.32" x2="126.39" xlink:href="#d"/><linearGradient id="g" x1="94.96" x2="126.65" xlink:href="#e"/><linearGradient id="h" x1="164.32" x2="196.01" xlink:href="#e"/><linearGradient id="i" x1="233.57" y1="34.95" x2="265.27" y2="34.95" xlink:href="#e"/></defs><g id="c"><g><path d="m9.82,37.78c-.31,0-.56.24-.56.56s.24.56.56.56h3.71c.31,0,.56-.24.56-.56s-.24-.56-.56-.56h-3.71Z" style="fill:#4c4c4c;"/><path d="m2.41,41.3h18.53c1.33,0,2.41-1.07,2.41-2.41v-.56c0-.31-.24-.56-.56-.56h-6.48c-.31,0-.56.24-.56.56s.24.56.56.56h5.93c0,.72-.57,1.3-1.3,1.3H2.41c-.72,0-1.3-.57-1.3-1.3h5.93c.31,0,.56-.24.56-.56s-.24-.56-.56-.56H.56c-.31,0-.56.24-.56.56v.56c0,1.33,1.07,2.41,2.41,2.41Zm18.53-4.45c.31,0,.56-.24.56-.56v-10.93c0-1.33-1.07-2.41-2.41-2.41H4.26c-1.33,0-2.41,1.07-2.41,2.41v10.93c0,.31.24.56.56.56s.56-.24.56-.56v-10.93c0-.72.57-1.3,1.3-1.3h14.82c.72,0,1.3.57,1.3,1.3v10.93c0,.31.24.56.56.56Z" style="fill:#4c4c4c;"/></g><path d="m89.8,31.98c-1.29-.58-2.66-.52-2.67-.52.04-.31.07-.63.07-.95,0-4.26-3.68-7.71-8.23-7.71-3.54,0-6.55,2.1-7.71,5.04-.74-.69-1.76-1.12-2.88-1.12-2.25,0-4.07,1.71-4.07,3.81,0,.05,0,.11,0,.16-2.48.64-4.31,2.77-4.31,5.3,0,3.04,2.63,5.5,5.87,5.5h21.29c2.96,0,5.23-2.25,5.35-5.02.12-2.8-1.82-4.09-2.72-4.49Z" style="fill:none; stroke:#4c4c4c; stroke-miterlimit:10;"/><g><path d="m186.69,68.66c.09-.25.06-.52-.09-.74-.15-.18-.37-.29-.6-.31l-4.96-.06s-.06-.03-.09-.03c-.02-.02-.03-.05-.01-.07,0,0,0,0,.01-.01.03-.06.06-.09.11-.09l4.99-.06c.64-.07,1.2-.49,1.45-1.08l.28-.74s.03-.06,0-.09c-.39-1.75-2.13-2.85-3.88-2.46-1.1.25-1.99,1.05-2.36,2.11-.3-.21-.66-.31-1.03-.28-.69.08-1.23.62-1.31,1.31-.02.17,0,.34.03.51-1.13.03-2.02.95-2.02,2.08,0,.11,0,.21.03.31,0,.05.04.08.09.09h9.14c.06,0,.11-.03.11-.09l.09-.31Z" style="fill:#f38020;"/><path d="m188.26,65.47h-.14s-.06.03-.09.06l-.2.68c-.09.25-.06.52.09.74.15.18.37.29.6.31l1.05.06s.06.03.09.03c.02.02.03.05.01.07,0,0,0,0-.01.01-.03.06-.06.09-.11.09l-1.08.06c-.64.07-1.2.49-1.45,1.08l-.06.26s0,.09.06.09h3.76s.08-.02.09-.06c0,0,0-.01,0-.02.07-.24.11-.49.11-.74,0-1.49-1.22-2.7-2.71-2.71" style="fill:#faac3f;"/><path d="m191.33,70.6c-.14,0-.26-.11-.26-.26,0-.14.11-.26.26-.26.14,0,.26.11.26.26,0,.14-.11.26-.25.26,0,0,0,0,0,0m0-.46c-.11,0-.2.09-.2.2s.09.2.2.2.2-.09.2-.2h0c0-.11-.08-.2-.19-.2,0,0,0,0,0,0m.11.34h-.06l-.06-.09h-.06v.09h-.06v-.26h.14s.08.02.09.06c0,0,0,.01,0,.02,0,.03-.03.06-.06.09l.06.09h0Zm-.09-.14s.03,0,.03-.03c0-.02-.01-.03-.03-.03,0,0,0,0,0,0h-.09v.09h.09v-.03Zm-25.55-.26h.63v1.71h1.08v.54h-1.71v-2.25Zm2.36,1.11c0-.65.52-1.17,1.17-1.17.02,0,.04,0,.06,0,.63-.03,1.17.46,1.2,1.09,0,.03,0,.05,0,.08,0,.65-.52,1.17-1.17,1.17-.02,0-.04,0-.06,0-.64.02-1.18-.49-1.2-1.13,0-.01,0-.03,0-.04m1.79,0c.02-.32-.22-.6-.54-.63,0,0-.02,0-.03,0-.33.02-.59.3-.57.63.02.31.26.55.57.57.34.06.57-.23.57-.57m1.4.14v-1.25h.63v1.25c0,.31.17.48.43.48.22.02.41-.14.43-.36,0-.03,0-.06,0-.09v-1.28h.63v1.25c0,.74-.43,1.05-1.05,1.05-.66-.03-1.05-.34-1.05-1.05m3.05-1.25h.88c.8,0,1.28.46,1.28,1.11s-.48,1.14-1.28,1.14h-.85v-2.25h-.03Zm.88,1.68c.31.03.59-.2.62-.52.03-.31-.2-.59-.52-.62-.04,0-.07,0-.11,0h-.26v1.14h.26Zm2.16-1.68h1.79v.54h-1.17v.37h1.05v.51h-1.05v.83h-.63v-2.25Zm2.68,0h.63v1.71h1.08v.54h-1.71v-2.25Zm3.33-.03h.63l.97,2.28h-.68l-.17-.4h-.88l-.17.4h-.66l.97-2.28Zm.57,1.4l-.26-.63-.26.63h.51Zm1.82-1.37h1.05c.27-.02.54.07.74.26.28.3.26.78-.04,1.06-.06.06-.14.11-.22.14l.54.8h-.71l-.46-.68h-.28v.68h-.63v-2.25Zm1.03,1.08c.2,0,.34-.11.34-.26,0-.17-.14-.26-.34-.26h-.4v.54h.4v-.03Zm1.85-1.08h1.82v.51h-1.2v.34h1.08v.51h-1.08v.34h1.22v.54h-1.85v-2.25Zm-24.3,1.4c-.09.21-.29.34-.51.34-.33-.02-.59-.3-.57-.63.02-.31.26-.55.57-.57.24,0,.45.15.54.37h.66c-.12-.56-.62-.96-1.2-.94-.65-.02-1.2.49-1.22,1.15,0,0,0,.01,0,.02,0,.64.51,1.16,1.16,1.17.01,0,.03,0,.04,0,.56,0,1.05-.37,1.2-.91h-.66Z" style="fill:#414141;"/></g><g><path d="m155.74,23.09c-.1,0-.19-.04-.26-.11-.07-.07-.11-.17-.11-.26s.04-.19.11-.26c.14-.14.39-.14.52,0,.07.07.11.17.11.26s-.04.19-.11.26c-.07.07-.17.11-.26.11Z" style="fill:#f38120;"/><path d="m155.74,30.47c-.1,0-.19-.04-.26-.11-.07-.07-.11-.17-.11-.26s.04-.2.11-.26c.14-.14.38-.14.52,0,.07.07.11.16.11.26s-.04.19-.11.26c-.07.07-.17.11-.26.11Z" style="fill:#f38120;"/><path d="m155.74,37.85c-.1,0-.19-.04-.26-.11-.07-.07-.11-.16-.11-.26s.04-.19.11-.26c.14-.14.39-.14.52,0,.07.07.11.17.11.26s-.04.19-.11.26c-.07.07-.17.11-.26.11Z" style="fill:#f38120;"/><path d="m156.85,27.52h-20.67c-.81,0-1.48-.66-1.48-1.48v-5.17c0-.81.66-1.48,1.48-1.48h20.67c.81,0,1.48.66,1.48,1.48v5.17c0,.81-.66,1.48-1.48,1.48Zm-20.67-7.38c-.41,0-.74.33-.74.74v5.17c0,.41.33.74.74.74h20.67c.41,0,.74-.33.74-.74v-5.17c0-.41-.33-.74-.74-.74h-20.67Z" style="fill:#f38120;"/><path d="m156.85,42.28h-20.67c-.81,0-1.48-.66-1.48-1.48v-5.17c0-.81.66-1.48,1.48-1.48h20.67c.81,0,1.48.66,1.48,1.48v5.17c0,.81-.66,1.48-1.48,1.48Zm-20.67-7.38c-.41,0-.74.33-.74.74v5.17c0,.41.33.74.74.74h20.67c.41,0,.74-.33.74-.74v-5.17c0-.41-.33-.74-.74-.74h-20.67Z" style="fill:#f38120;"/><path d="m156.85,34.9h-20.67c-.81,0-1.48-.66-1.48-1.48v-5.17c0-.81.66-1.48,1.48-1.48h20.67c.81,0,1.48.66,1.48,1.48v5.17c0,.81-.66,1.48-1.48,1.48Zm-20.67-7.38c-.41,0-.74.33-.74.74v5.17c0,.41.33.74.74.74h20.67c.41,0,.74-.33.74-.74v-5.17c0-.41-.33-.74-.74-.74h-20.67Z" style="fill:#f38120;"/><path d="m138.39,24.93c-.81,0-1.48-.66-1.48-1.48s.66-1.48,1.48-1.48,1.48.66,1.48,1.48-.66,1.48-1.48,1.48Zm0-2.21c-.41,0-.74.33-.74.74s.33.74.74.74.74-.33.74-.74-.33-.74-.74-.74Z" style="fill:#f38120;"/><path d="m138.39,32.32c-.81,0-1.48-.66-1.48-1.48s.66-1.48,1.48-1.48,1.48.66,1.48,1.48-.66,1.48-1.48,1.48Zm0-2.21c-.41,0-.74.33-.74.74s.33.74.74.74.74-.33.74-.74-.33-.74-.74-.74Z" style="fill:#f38120;"/><path d="m138.39,39.7c-.81,0-1.48-.66-1.48-1.48s.66-1.48,1.48-1.48,1.48.66,1.48,1.48-.66,1.48-1.48,1.48Zm0-2.21c-.41,0-.74.33-.74.74s.33.74.74.74.74-.33.74-.74-.33-.74-.74-.74Z" style="fill:#f38120;"/><path d="m154.26,23.09c-.1,0-.19-.04-.26-.11-.07-.07-.11-.17-.11-.26s.04-.19.11-.26c.14-.14.38-.14.52,0,.07.07.11.17.11.26s-.04.19-.11.26c-.07.07-.17.11-.26.11Z" style="fill:#f38120;"/><path d="m152.79,23.09c-.1,0-.19-.04-.26-.11-.07-.07-.11-.17-.11-.26s.04-.19.11-.26c.14-.14.39-.14.52,0,.07.07.11.16.11.26s-.04.19-.11.26c-.07.07-.17.11-.26.11Z" style="fill:#f38120;"/><path d="m151.31,23.09c-.1,0-.19-.04-.26-.11-.07-.07-.11-.17-.11-.26s.04-.19.11-.26c.14-.14.38-.14.52,0,.07.07.11.16.11.26s-.04.19-.11.26c-.07.07-.17.11-.26.11Z" style="fill:#f38120;"/><path d="m149.84,23.09c-.1,0-.19-.04-.26-.11-.07-.07-.11-.17-.11-.26s.04-.19.11-.26c.14-.14.38-.14.52,0,.07.07.11.17.11.26s-.04.19-.11.26c-.07.07-.17.11-.26.11Z" style="fill:#f38120;"/><path d="m148.36,23.09c-.1,0-.19-.04-.26-.11-.07-.07-.11-.17-.11-.26s.04-.19.11-.26c.14-.14.39-.14.52,0,.07.07.11.17.11.26s-.04.19-.11.26c-.07.07-.17.11-.26.11Z" style="fill:#f38120;"/><path d="m155,24.56c-.1,0-.19-.04-.26-.11-.07-.07-.11-.17-.11-.26s.04-.19.11-.26c.14-.14.38-.14.52,0,.07.07.11.17.11.26s-.04.19-.11.26c-.07.07-.17.11-.26.11Z" style="fill:#f38120;"/><path d="m153.53,24.56c-.1,0-.19-.04-.26-.11-.07-.07-.11-.17-.11-.26s.04-.19.11-.26c.14-.14.39-.14.52,0,.07.07.11.16.11.26s-.04.19-.11.26c-.07.07-.17.11-.26.11Z" style="fill:#f38120;"/><path d="m152.05,24.56c-.1,0-.19-.04-.26-.11-.07-.07-.11-.17-.11-.26s.04-.19.11-.26c.14-.14.39-.14.52,0,.07.07.11.16.11.26s-.04.19-.11.26c-.07.07-.17.11-.26.11Z" style="fill:#f38120;"/><path d="m150.57,24.56c-.1,0-.19-.04-.26-.11-.07-.07-.11-.17-.11-.26s.04-.19.11-.26c.14-.14.38-.14.52,0,.07.07.11.17.11.26s-.04.19-.11.26c-.07.07-.17.11-.26.11Z" style="fill:#f38120;"/><path d="m149.1,24.56c-.1,0-.19-.04-.26-.11-.07-.07-.11-.17-.11-.26s.04-.19.11-.26c.14-.14.39-.14.52,0,.07.07.11.16.11.26s-.04.19-.11.26c-.07.07-.17.11-.26.11Z" style="fill:#f38120;"/><path d="m147.62,24.56c-.1,0-.19-.04-.26-.11-.07-.07-.11-.17-.11-.26s.04-.19.11-.26c.14-.14.39-.14.52,0,.07.07.11.16.11.26s-.04.19-.11.26c-.07.07-.17.11-.26.11Z" style="fill:#f38120;"/><path d="m154.26,30.47c-.1,0-.19-.04-.26-.11-.07-.07-.11-.17-.11-.26s.04-.19.11-.26c.14-.14.39-.14.52,0,.07.07.11.16.11.26s-.04.19-.11.26c-.07.07-.17.11-.26.11Z" style="fill:#f38120;"/><path d="m152.79,30.47c-.1,0-.19-.04-.26-.11-.07-.07-.11-.17-.11-.26s.04-.19.11-.26c.14-.14.39-.14.52,0,.07.07.11.16.11.26s-.04.19-.11.26c-.07.07-.17.11-.26.11Z" style="fill:#f38120;"/><path d="m151.31,30.47c-.1,0-.19-.04-.26-.11-.07-.07-.11-.17-.11-.26s.04-.19.11-.26c.14-.14.38-.14.52,0,.07.07.11.16.11.26s-.04.19-.11.26c-.07.07-.17.11-.26.11Z" style="fill:#f38120;"/><path d="m149.84,30.47c-.1,0-.19-.04-.26-.11-.07-.07-.11-.17-.11-.26s.04-.19.11-.26c.14-.14.38-.14.52,0,.07.07.11.16.11.26s-.04.19-.11.26c-.07.07-.17.11-.26.11Z" style="fill:#f38120;"/><path d="m148.36,30.47c-.1,0-.19-.04-.26-.11-.07-.07-.11-.17-.11-.26s.04-.19.11-.26c.14-.14.39-.14.52,0,.07.07.11.16.11.26s-.04.19-.11.26c-.07.07-.17.11-.26.11Z" style="fill:#f38120;"/><path d="m155,31.95c-.1,0-.19-.04-.26-.11-.07-.07-.11-.16-.11-.26s.04-.19.11-.26c.14-.14.39-.14.52,0,.07.07.11.17.11.26s-.04.19-.11.26c-.07.07-.17.11-.26.11Z" style="fill:#f38120;"/><path d="m153.53,31.95c-.1,0-.19-.04-.26-.11-.07-.07-.11-.16-.11-.26s.04-.19.11-.26c.14-.14.39-.14.52,0,.07.07.11.17.11.26s-.04.19-.11.26c-.07.07-.16.11-.26.11Z" style="fill:#f38120;"/><path d="m152.05,31.95c-.1,0-.19-.04-.26-.11-.07-.07-.11-.16-.11-.26s.04-.19.11-.26c.14-.14.38-.14.52,0,.07.07.11.17.11.26s-.04.19-.11.26c-.07.07-.17.11-.26.11Z" style="fill:#f38120;"/><path d="m150.57,31.95c-.1,0-.19-.04-.26-.11-.07-.07-.11-.16-.11-.26s.04-.19.11-.26c.14-.14.39-.14.52,0,.07.07.11.17.11.26s-.04.19-.11.26c-.07.07-.17.11-.26.11Z" style="fill:#f38120;"/><path d="m149.1,31.95c-.1,0-.19-.04-.26-.11-.07-.07-.11-.16-.11-.26s.04-.19.11-.26c.14-.14.38-.14.52,0,.07.07.11.17.11.26s-.04.19-.11.26c-.07.07-.17.11-.26.11Z" style="fill:#f38120;"/><path d="m147.62,31.95c-.1,0-.19-.04-.26-.11-.07-.07-.11-.16-.11-.26s.04-.19.11-.26c.14-.14.39-.14.52,0,.07.07.11.17.11.26s-.04.19-.11.26c-.07.07-.17.11-.26.11Z" style="fill:#f38120;"/><path d="m154.26,37.85c-.1,0-.19-.04-.26-.11-.07-.07-.11-.17-.11-.26s.04-.19.11-.26c.14-.14.39-.14.52,0,.07.07.11.17.11.26s-.04.19-.11.26c-.07.07-.17.11-.26.11Z" style="fill:#f38120;"/><path d="m152.79,37.85c-.1,0-.19-.04-.26-.11-.07-.07-.11-.16-.11-.26s.04-.19.11-.26c.14-.14.39-.14.52,0,.07.07.11.17.11.26s-.04.19-.11.26c-.07.07-.17.11-.26.11Z" style="fill:#f38120;"/><path d="m151.31,37.85c-.1,0-.19-.04-.26-.11-.07-.07-.11-.16-.11-.26s.04-.19.11-.26c.14-.14.39-.14.52,0,.07.07.11.17.11.26s-.04.19-.11.26c-.07.07-.17.11-.26.11Z" style="fill:#f38120;"/><path d="m149.84,37.85c-.1,0-.19-.04-.26-.11-.07-.07-.11-.16-.11-.26s.04-.19.11-.26c.14-.14.39-.14.52,0,.07.07.11.17.11.26s-.04.19-.11.26c-.07.07-.17.11-.26.11Z" style="fill:#f38120;"/><path d="m148.36,37.85c-.1,0-.19-.04-.26-.11-.07-.07-.11-.16-.11-.26s.04-.19.11-.26c.14-.14.39-.14.52,0,.07.07.11.17.11.26s-.04.19-.11.26c-.07.07-.16.11-.26.11Z" style="fill:#f38120;"/><path d="m155,39.33c-.1,0-.19-.04-.26-.11-.07-.07-.11-.17-.11-.26s.04-.19.11-.26c.14-.14.39-.14.52,0,.07.07.11.17.11.26s-.04.19-.11.26c-.07.07-.17.11-.26.11Z" style="fill:#f38120;"/><path d="m153.53,39.33c-.1,0-.19-.04-.26-.11-.07-.07-.11-.16-.11-.26s.04-.19.11-.26c.14-.14.39-.14.52,0,.07.07.11.17.11.26s-.04.19-.11.26c-.07.07-.17.11-.26.11Z" style="fill:#f38120;"/><path d="m152.05,39.33c-.1,0-.19-.04-.26-.11-.07-.07-.11-.17-.11-.26s.04-.19.11-.26c.14-.14.39-.14.52,0,.07.07.11.17.11.26s-.04.19-.11.26c-.07.07-.17.11-.26.11Z" style="fill:#f38120;"/><path d="m150.57,39.33c-.1,0-.19-.04-.26-.11-.07-.07-.11-.16-.11-.26s.04-.19.11-.26c.14-.14.39-.14.52,0,.07.07.11.17.11.26s-.04.19-.11.26c-.07.07-.17.11-.26.11Z" style="fill:#f38120;"/><path d="m149.1,39.33c-.1,0-.19-.04-.26-.11-.07-.07-.11-.16-.11-.26s.04-.19.11-.26c.13-.14.39-.14.52,0,.07.07.11.17.11.26s-.04.19-.11.26c-.07.07-.17.11-.26.11Z" style="fill:#f38120;"/><path d="m147.62,39.33c-.1,0-.19-.04-.26-.11-.07-.07-.11-.17-.11-.26s.04-.19.11-.26c.14-.14.39-.14.52,0,.07.07.11.17.11.26s-.04.19-.11.26c-.07.07-.17.11-.26.11Z" style="fill:#f38120;"/><path d="m140.98,24.19c-.2,0-.37-.17-.37-.37v-.74c0-.2.17-.37.37-.37s.37.17.37.37v.74c0,.2-.17.37-.37.37Z" style="fill:#f38120;"/><path d="m142.45,24.19c-.2,0-.37-.17-.37-.37v-.74c0-.2.17-.37.37-.37s.37.17.37.37v.74c0,.2-.17.37-.37.37Z" style="fill:#f38120;"/><path d="m143.93,24.19c-.2,0-.37-.17-.37-.37v-.74c0-.2.17-.37.37-.37s.37.17.37.37v.74c0,.2-.17.37-.37.37Z" style="fill:#f38120;"/><path d="m140.98,31.58c-.2,0-.37-.17-.37-.37v-.74c0-.2.17-.37.37-.37s.37.17.37.37v.74c0,.2-.17.37-.37.37Z" style="fill:#f38120;"/><path d="m142.45,31.58c-.2,0-.37-.17-.37-.37v-.74c0-.2.17-.37.37-.37s.37.17.37.37v.74c0,.2-.17.37-.37.37Z" style="fill:#f38120;"/><path d="m143.93,31.58c-.2,0-.37-.17-.37-.37v-.74c0-.2.17-.37.37-.37s.37.17.37.37v.74c0,.2-.17.37-.37.37Z" style="fill:#f38120;"/><path d="m140.98,38.96c-.2,0-.37-.17-.37-.37v-.74c0-.2.17-.37.37-.37s.37.17.37.37v.74c0,.2-.17.37-.37.37Z" style="fill:#f38120;"/><path d="m142.45,38.96c-.2,0-.37-.17-.37-.37v-.74c0-.2.17-.37.37-.37s.37.17.37.37v.74c0,.2-.17.37-.37.37Z" style="fill:#f38120;"/><path d="m143.93,38.96c-.2,0-.37-.17-.37-.37v-.74c0-.2.17-.37.37-.37s.37.17.37.37v.74c0,.2-.17.37-.37.37Z" style="fill:#f38120;"/></g><rect x="129.77" y="9.2" width="101.99" height="51.09" rx="7.56" ry="7.56" style="fill:none; stroke:#f38020; stroke-miterlimit:10; stroke-width:.63px;"/><g><path d="m224.06,23.09c-.1,0-.19-.04-.26-.11-.07-.07-.11-.17-.11-.26s.04-.19.11-.26c.14-.14.39-.14.52,0,.07.07.11.17.11.26s-.04.19-.11.26c-.07.07-.17.11-.26.11Z" style="fill:#f38120;"/><path d="m224.06,30.47c-.1,0-.19-.04-.26-.11-.07-.07-.11-.17-.11-.26s.04-.2.11-.26c.14-.14.38-.14.52,0,.07.07.11.16.11.26s-.04.19-.11.26c-.07.07-.17.11-.26.11Z" style="fill:#f38120;"/><path d="m224.06,37.85c-.1,0-.19-.04-.26-.11-.07-.07-.11-.16-.11-.26s.04-.19.11-.26c.14-.14.39-.14.52,0,.07.07.11.17.11.26s-.04.19-.11.26c-.07.07-.17.11-.26.11Z" style="fill:#f38120;"/><path d="m225.17,27.52h-20.67c-.81,0-1.48-.66-1.48-1.48v-5.17c0-.81.66-1.48,1.48-1.48h20.67c.81,0,1.48.66,1.48,1.48v5.17c0,.81-.66,1.48-1.48,1.48Zm-20.67-7.38c-.41,0-.74.33-.74.74v5.17c0,.41.33.74.74.74h20.67c.41,0,.74-.33.74-.74v-5.17c0-.41-.33-.74-.74-.74h-20.67Z" style="fill:#f38120;"/><path d="m225.17,42.28h-20.67c-.81,0-1.48-.66-1.48-1.48v-5.17c0-.81.66-1.48,1.48-1.48h20.67c.81,0,1.48.66,1.48,1.48v5.17c0,.81-.66,1.48-1.48,1.48Zm-20.67-7.38c-.41,0-.74.33-.74.74v5.17c0,.41.33.74.74.74h20.67c.41,0,.74-.33.74-.74v-5.17c0-.41-.33-.74-.74-.74h-20.67Z" style="fill:#f38120;"/><path d="m225.17,34.9h-20.67c-.81,0-1.48-.66-1.48-1.48v-5.17c0-.81.66-1.48,1.48-1.48h20.67c.81,0,1.48.66,1.48,1.48v5.17c0,.81-.66,1.48-1.48,1.48Zm-20.67-7.38c-.41,0-.74.33-.74.74v5.17c0,.41.33.74.74.74h20.67c.41,0,.74-.33.74-.74v-5.17c0-.41-.33-.74-.74-.74h-20.67Z" style="fill:#f38120;"/><path d="m206.71,24.93c-.81,0-1.48-.66-1.48-1.48s.66-1.48,1.48-1.48,1.48.66,1.48,1.48-.66,1.48-1.48,1.48Zm0-2.21c-.41,0-.74.33-.74.74s.33.74.74.74.74-.33.74-.74-.33-.74-.74-.74Z" style="fill:#f38120;"/><path d="m206.71,32.32c-.81,0-1.48-.66-1.48-1.48s.66-1.48,1.48-1.48,1.48.66,1.48,1.48-.66,1.48-1.48,1.48Zm0-2.21c-.41,0-.74.33-.74.74s.33.74.74.74.74-.33.74-.74-.33-.74-.74-.74Z" style="fill:#f38120;"/><path d="m206.71,39.7c-.81,0-1.48-.66-1.48-1.48s.66-1.48,1.48-1.48,1.48.66,1.48,1.48-.66,1.48-1.48,1.48Zm0-2.21c-.41,0-.74.33-.74.74s.33.74.74.74.74-.33.74-.74-.33-.74-.74-.74Z" style="fill:#f38120;"/><path d="m222.59,23.09c-.1,0-.19-.04-.26-.11-.07-.07-.11-.17-.11-.26s.04-.19.11-.26c.14-.14.38-.14.52,0,.07.07.11.17.11.26s-.04.19-.11.26c-.07.07-.17.11-.26.11Z" style="fill:#f38120;"/><path d="m221.11,23.09c-.1,0-.19-.04-.26-.11-.07-.07-.11-.17-.11-.26s.04-.19.11-.26c.14-.14.39-.14.52,0,.07.07.11.16.11.26s-.04.19-.11.26c-.07.07-.17.11-.26.11Z" style="fill:#f38120;"/><path d="m219.63,23.09c-.1,0-.19-.04-.26-.11-.07-.07-.11-.17-.11-.26s.04-.19.11-.26c.14-.14.38-.14.52,0,.07.07.11.16.11.26s-.04.19-.11.26c-.07.07-.17.11-.26.11Z" style="fill:#f38120;"/><path d="m218.16,23.09c-.1,0-.19-.04-.26-.11-.07-.07-.11-.17-.11-.26s.04-.19.11-.26c.14-.14.38-.14.52,0,.07.07.11.17.11.26s-.04.19-.11.26c-.07.07-.17.11-.26.11Z" style="fill:#f38120;"/><path d="m216.68,23.09c-.1,0-.19-.04-.26-.11-.07-.07-.11-.17-.11-.26s.04-.19.11-.26c.14-.14.39-.14.52,0,.07.07.11.17.11.26s-.04.19-.11.26c-.07.07-.17.11-.26.11Z" style="fill:#f38120;"/><path d="m223.33,24.56c-.1,0-.19-.04-.26-.11-.07-.07-.11-.17-.11-.26s.04-.19.11-.26c.14-.14.38-.14.52,0,.07.07.11.17.11.26s-.04.19-.11.26c-.07.07-.17.11-.26.11Z" style="fill:#f38120;"/><path d="m221.85,24.56c-.1,0-.19-.04-.26-.11-.07-.07-.11-.17-.11-.26s.04-.19.11-.26c.14-.14.39-.14.52,0,.07.07.11.16.11.26s-.04.19-.11.26c-.07.07-.17.11-.26.11Z" style="fill:#f38120;"/><path d="m220.37,24.56c-.1,0-.19-.04-.26-.11-.07-.07-.11-.17-.11-.26s.04-.19.11-.26c.14-.14.39-.14.52,0,.07.07.11.16.11.26s-.04.19-.11.26c-.07.07-.17.11-.26.11Z" style="fill:#f38120;"/><path d="m218.9,24.56c-.1,0-.19-.04-.26-.11-.07-.07-.11-.17-.11-.26s.04-.19.11-.26c.14-.14.38-.14.52,0,.07.07.11.17.11.26s-.04.19-.11.26c-.07.07-.17.11-.26.11Z" style="fill:#f38120;"/><path d="m217.42,24.56c-.1,0-.19-.04-.26-.11-.07-.07-.11-.17-.11-.26s.04-.19.11-.26c.14-.14.39-.14.52,0,.07.07.11.16.11.26s-.04.19-.11.26c-.07.07-.17.11-.26.11Z" style="fill:#f38120;"/><path d="m215.94,24.56c-.1,0-.19-.04-.26-.11-.07-.07-.11-.17-.11-.26s.04-.19.11-.26c.14-.14.39-.14.52,0,.07.07.11.16.11.26s-.04.19-.11.26c-.07.07-.17.11-.26.11Z" style="fill:#f38120;"/><path d="m222.59,30.47c-.1,0-.19-.04-.26-.11-.07-.07-.11-.17-.11-.26s.04-.19.11-.26c.14-.14.39-.14.52,0,.07.07.11.16.11.26s-.04.19-.11.26c-.07.07-.17.11-.26.11Z" style="fill:#f38120;"/><path d="m221.11,30.47c-.1,0-.19-.04-.26-.11-.07-.07-.11-.17-.11-.26s.04-.19.11-.26c.14-.14.39-.14.52,0,.07.07.11.16.11.26s-.04.19-.11.26c-.07.07-.17.11-.26.11Z" style="fill:#f38120;"/><path d="m219.63,30.47c-.1,0-.19-.04-.26-.11-.07-.07-.11-.17-.11-.26s.04-.19.11-.26c.14-.14.38-.14.52,0,.07.07.11.16.11.26s-.04.19-.11.26c-.07.07-.17.11-.26.11Z" style="fill:#f38120;"/><path d="m218.16,30.47c-.1,0-.19-.04-.26-.11-.07-.07-.11-.17-.11-.26s.04-.19.11-.26c.14-.14.38-.14.52,0,.07.07.11.16.11.26s-.04.19-.11.26c-.07.07-.17.11-.26.11Z" style="fill:#f38120;"/><path d="m216.68,30.47c-.1,0-.19-.04-.26-.11-.07-.07-.11-.17-.11-.26s.04-.19.11-.26c.14-.14.39-.14.52,0,.07.07.11.16.11.26s-.04.19-.11.26c-.07.07-.17.11-.26.11Z" style="fill:#f38120;"/><path d="m223.33,31.95c-.1,0-.19-.04-.26-.11-.07-.07-.11-.16-.11-.26s.04-.19.11-.26c.14-.14.39-.14.52,0,.07.07.11.17.11.26s-.04.19-.11.26c-.07.07-.17.11-.26.11Z" style="fill:#f38120;"/><path d="m221.85,31.95c-.1,0-.19-.04-.26-.11-.07-.07-.11-.16-.11-.26s.04-.19.11-.26c.14-.14.39-.14.52,0,.07.07.11.17.11.26s-.04.19-.11.26c-.07.07-.16.11-.26.11Z" style="fill:#f38120;"/><path d="m220.37,31.95c-.1,0-.19-.04-.26-.11-.07-.07-.11-.16-.11-.26s.04-.19.11-.26c.14-.14.38-.14.52,0,.07.07.11.17.11.26s-.04.19-.11.26c-.07.07-.17.11-.26.11Z" style="fill:#f38120;"/><path d="m218.9,31.95c-.1,0-.19-.04-.26-.11-.07-.07-.11-.16-.11-.26s.04-.19.11-.26c.14-.14.39-.14.52,0,.07.07.11.17.11.26s-.04.19-.11.26c-.07.07-.17.11-.26.11Z" style="fill:#f38120;"/><path d="m217.42,31.95c-.1,0-.19-.04-.26-.11-.07-.07-.11-.16-.11-.26s.04-.19.11-.26c.14-.14.38-.14.52,0,.07.07.11.17.11.26s-.04.19-.11.26c-.07.07-.17.11-.26.11Z" style="fill:#f38120;"/><path d="m215.94,31.95c-.1,0-.19-.04-.26-.11-.07-.07-.11-.16-.11-.26s.04-.19.11-.26c.14-.14.39-.14.52,0,.07.07.11.17.11.26s-.04.19-.11.26c-.07.07-.17.11-.26.11Z" style="fill:#f38120;"/><path d="m222.59,37.85c-.1,0-.19-.04-.26-.11-.07-.07-.11-.17-.11-.26s.04-.19.11-.26c.14-.14.39-.14.52,0,.07.07.11.17.11.26s-.04.19-.11.26c-.07.07-.17.11-.26.11Z" style="fill:#f38120;"/><path d="m221.11,37.85c-.1,0-.19-.04-.26-.11-.07-.07-.11-.16-.11-.26s.04-.19.11-.26c.14-.14.39-.14.52,0,.07.07.11.17.11.26s-.04.19-.11.26c-.07.07-.17.11-.26.11Z" style="fill:#f38120;"/><path d="m219.63,37.85c-.1,0-.19-.04-.26-.11-.07-.07-.11-.16-.11-.26s.04-.19.11-.26c.14-.14.39-.14.52,0,.07.07.11.17.11.26s-.04.19-.11.26c-.07.07-.17.11-.26.11Z" style="fill:#f38120;"/><path d="m218.16,37.85c-.1,0-.19-.04-.26-.11-.07-.07-.11-.16-.11-.26s.04-.19.11-.26c.14-.14.39-.14.52,0,.07.07.11.17.11.26s-.04.19-.11.26c-.07.07-.17.11-.26.11Z" style="fill:#f38120;"/><path d="m216.68,37.85c-.1,0-.19-.04-.26-.11-.07-.07-.11-.16-.11-.26s.04-.19.11-.26c.14-.14.39-.14.52,0,.07.07.11.17.11.26s-.04.19-.11.26c-.07.07-.16.11-.26.11Z" style="fill:#f38120;"/><path d="m223.33,39.33c-.1,0-.19-.04-.26-.11-.07-.07-.11-.17-.11-.26s.04-.19.11-.26c.14-.14.39-.14.52,0,.07.07.11.17.11.26s-.04.19-.11.26c-.07.07-.17.11-.26.11Z" style="fill:#f38120;"/><path d="m221.85,39.33c-.1,0-.19-.04-.26-.11-.07-.07-.11-.16-.11-.26s.04-.19.11-.26c.14-.14.39-.14.52,0,.07.07.11.17.11.26s-.04.19-.11.26c-.07.07-.17.11-.26.11Z" style="fill:#f38120;"/><path d="m220.37,39.33c-.1,0-.19-.04-.26-.11-.07-.07-.11-.17-.11-.26s.04-.19.11-.26c.14-.14.39-.14.52,0,.07.07.11.17.11.26s-.04.19-.11.26c-.07.07-.17.11-.26.11Z" style="fill:#f38120;"/><path d="m218.9,39.33c-.1,0-.19-.04-.26-.11-.07-.07-.11-.16-.11-.26s.04-.19.11-.26c.14-.14.39-.14.52,0,.07.07.11.17.11.26s-.04.19-.11.26c-.07.07-.17.11-.26.11Z" style="fill:#f38120;"/><path d="m217.42,39.33c-.1,0-.19-.04-.26-.11-.07-.07-.11-.16-.11-.26s.04-.19.11-.26c.13-.14.39-.14.52,0,.07.07.11.17.11.26s-.04.19-.11.26c-.07.07-.17.11-.26.11Z" style="fill:#f38120;"/><path d="m215.94,39.33c-.1,0-.19-.04-.26-.11-.07-.07-.11-.17-.11-.26s.04-.19.11-.26c.14-.14.39-.14.52,0,.07.07.11.17.11.26s-.04.19-.11.26c-.07.07-.17.11-.26.11Z" style="fill:#f38120;"/><path d="m209.3,24.19c-.2,0-.37-.17-.37-.37v-.74c0-.2.17-.37.37-.37s.37.17.37.37v.74c0,.2-.17.37-.37.37Z" style="fill:#f38120;"/><path d="m210.77,24.19c-.2,0-.37-.17-.37-.37v-.74c0-.2.17-.37.37-.37s.37.17.37.37v.74c0,.2-.17.37-.37.37Z" style="fill:#f38120;"/><path d="m212.25,24.19c-.2,0-.37-.17-.37-.37v-.74c0-.2.17-.37.37-.37s.37.17.37.37v.74c0,.2-.17.37-.37.37Z" style="fill:#f38120;"/><path d="m209.3,31.58c-.2,0-.37-.17-.37-.37v-.74c0-.2.17-.37.37-.37s.37.17.37.37v.74c0,.2-.17.37-.37.37Z" style="fill:#f38120;"/><path d="m210.77,31.58c-.2,0-.37-.17-.37-.37v-.74c0-.2.17-.37.37-.37s.37.17.37.37v.74c0,.2-.17.37-.37.37Z" style="fill:#f38120;"/><path d="m212.25,31.58c-.2,0-.37-.17-.37-.37v-.74c0-.2.17-.37.37-.37s.37.17.37.37v.74c0,.2-.17.37-.37.37Z" style="fill:#f38120;"/><path d="m209.3,38.96c-.2,0-.37-.17-.37-.37v-.74c0-.2.17-.37.37-.37s.37.17.37.37v.74c0,.2-.17.37-.37.37Z" style="fill:#f38120;"/><path d="m210.77,38.96c-.2,0-.37-.17-.37-.37v-.74c0-.2.17-.37.37-.37s.37.17.37.37v.74c0,.2-.17.37-.37.37Z" style="fill:#f38120;"/><path d="m212.25,38.96c-.2,0-.37-.17-.37-.37v-.74c0-.2.17-.37.37-.37s.37.17.37.37v.74c0,.2-.17.37-.37.37Z" style="fill:#f38120;"/></g><rect x="26.59" y="32.15" width="31.07" height="5" style="fill:url(#d);"/><path d="m26.49,34.68c16.71.11,11.94-.03,31.16,0" style="fill:none; stroke:url(#e); stroke-dasharray:0 0 .57 1.98; stroke-linecap:round; stroke-miterlimit:30; stroke-width:.53px;"/><g><g><path d="m275.9,67.05c.27.14.7.26,1.12.26s.64-.16.64-.4-.21-.38-.71-.59c-.8-.34-1.21-.81-1.21-1.41,0-.83.65-1.49,1.83-1.49.5,0,.88.1,1.14.22l-.23,1c-.19-.09-.5-.21-.92-.21-.38,0-.59.16-.59.37,0,.23.21.34.79.59.8.33,1.14.81,1.14,1.42,0,.85-.65,1.52-1.93,1.52-.53,0-1.03-.13-1.28-.26l.21-1.03Z" style="fill:#414042;"/><path d="m279.22,68.27v-4.79h1.36l.73,1.54c.22.42.48,1.05.67,1.56h.02c-.06-.56-.1-1.31-.1-2.08v-1.02h1.11v4.79h-1.25l-.76-1.6c-.23-.47-.51-1.11-.7-1.62h-.02c.03.58.05,1.32.05,2.14v1.07h-1.11Z" style="fill:#414042;"/><path d="m287.61,65.81c0,1.62-.84,2.53-2.17,2.53-1.4,0-2.09-1.16-2.09-2.45s.79-2.48,2.16-2.48c1.47,0,2.09,1.23,2.09,2.4Zm-2.96.07c0,.97.34,1.46.85,1.46s.82-.59.82-1.49c0-.82-.29-1.45-.83-1.45-.5,0-.84.54-.84,1.47Z" style="fill:#414042;"/><path d="m288.57,68.27l-1-4.79h1.31l.24,1.76c.08.55.15,1.16.21,1.68h.01c.07-.55.17-1.11.27-1.69l.31-1.75h1.22l.29,1.81c.09.54.15,1.04.21,1.61h.01c.06-.56.14-1.1.21-1.67l.25-1.75h1.23l-1.07,4.79h-1.32l-.29-1.68c-.07-.42-.13-.89-.2-1.48h-.01c-.08.57-.15,1.05-.24,1.48l-.33,1.68h-1.32Z" style="fill:#414042;"/><path d="m296.73,68.16c-.17.08-.56.17-1.06.17-1.66,0-2.37-1.11-2.37-2.38,0-1.71,1.18-2.54,2.47-2.54.49,0,.87.09,1.04.19l-.23.98c-.18-.08-.42-.15-.74-.15-.68,0-1.25.44-1.25,1.44,0,.91.48,1.42,1.26,1.42.26,0,.55-.05.73-.11l.15.98Z" style="fill:#414042;"/><path d="m298.29,67.21l-.24,1.06h-1.25l1.28-4.79h1.6l1.26,4.79h-1.29l-.26-1.06h-1.1Zm.95-.92l-.19-.88c-.06-.27-.14-.7-.21-.99h-.01c-.06.29-.14.72-.2.99l-.19.87h.8Z" style="fill:#414042;"/><path d="m301.49,64.54h-1.1v-1.06h3.45v1.06h-1.12v3.73h-1.23v-3.73Z" style="fill:#414042;"/></g><g><polygon points="269.33 67.62 270.67 66.85 269.33 66.08 267.99 66.85 269.33 67.62" style="fill:#004a82;"/><polygon points="270.67 68.4 272.01 67.62 270.67 66.85 269.33 67.62 270.67 68.4" style="fill:#002942;"/><polygon points="273.35 65.31 273.35 63.76 272.01 62.99 272.01 64.53 273.35 65.31" style="fill:#002942;"/><polygon points="272.01 64.53 272.01 62.99 270.67 62.22 270.67 63.76 272.01 64.53" style="fill:#004a82;"/><polygon points="267.99 65.31 267.99 63.76 269.33 62.99 269.33 64.53 267.99 65.31" style="fill:#007bff;"/><polygon points="269.33 64.53 269.33 62.99 270.67 62.22 270.67 63.76 269.33 64.53" style="fill:#006cce;"/><polygon points="267.99 66.85 267.99 65.31 269.33 64.53 269.33 66.08 267.99 66.85" style="fill:#006cce;"/><polygon points="270.67 68.4 270.67 66.85 272.01 66.08 272.01 67.62 270.67 68.4" style="fill:#881ce8;"/><polygon points="270.67 66.85 270.67 65.31 272.01 64.53 272.01 66.08 270.67 66.85" style="fill:#c078ff;"/><polygon points="272.01 66.08 272.01 64.53 273.35 63.76 273.35 65.31 272.01 66.08" style="fill:#881ce8;"/></g></g><path d="m299.45,31.98c-1.29-.58-2.66-.52-2.67-.52.04-.31.07-.63.07-.95,0-4.26-3.68-7.71-8.23-7.71-3.54,0-6.55,2.1-7.71,5.04-.74-.69-1.76-1.12-2.88-1.12-2.25,0-4.07,1.71-4.07,3.81,0,.05,0,.11,0,.16-2.48.64-4.31,2.77-4.31,5.3,0,3.04,2.63,5.5,5.87,5.5h21.29c2.96,0,5.23-2.25,5.35-5.02.12-2.8-1.82-4.09-2.72-4.49Z" style="fill:none; stroke:#3938f6; stroke-miterlimit:10;"/><polyline points="126.39 37.15 95.32 37.15 95.32 32.15 126.39 32.15" style="fill:url(#f);"/><path d="m95.23,34.68c16.71.11,11.94-.03,31.16,0" style="fill:none; stroke:url(#g); stroke-dasharray:0 0 .57 1.98; stroke-linecap:round; stroke-miterlimit:30; stroke-width:.53px;"/><polyline points="195.75 37.15 164.68 37.15 164.68 32.15 195.75 32.15" style="fill:#f38020;"/><path d="m164.58,34.68c16.71.11,11.94-.03,31.16,0" style="fill:none; stroke:url(#h); stroke-dasharray:0 0 .57 1.98; stroke-linecap:round; stroke-miterlimit:30; stroke-width:.53px;"/><polyline points="265 37.4 233.93 37.4 233.93 32.4 265 32.4" style="fill:#f38020;"/><path d="m233.84,34.93c16.71.11,11.94-.03,31.16,0" style="fill:none; stroke:url(#i); stroke-dasharray:0 0 .57 1.98; stroke-linecap:round; stroke-miterlimit:30; stroke-width:.53px;"/><g><polygon points="104.5 93.54 100.68 93.54 100.68 82.88 107.54 82.88 104.5 93.54" style="fill:#4c4c4c;"/><polygon points="112.04 93.54 105.31 93.54 108.35 82.88 115.08 82.88 112.04 93.54" style="fill:#4c4c4c; opacity:.67;"/><polygon points="117.92 93.54 113.01 93.54 116.05 82.88 120.96 82.88 117.92 93.54" style="fill:#4c4c4c; opacity:.34;"/><polygon points="122.53 93.68 118.83 93.68 121.87 83.03 125.57 83.03 122.53 93.68" style="fill:#4c4c4c; opacity:.13;"/><polygon points="95.21 88.21 100.98 95.79 100.98 80.62 95.21 88.21" style="fill:#4c4c4c;"/></g><g><polygon points="149.62 83.36 153.44 83.36 153.44 94.01 146.58 94.01 149.62 83.36" style="fill:#f38020;"/><polygon points="142.08 83.36 148.81 83.36 145.77 94.01 139.04 94.01 142.08 83.36" style="fill:#f38020; opacity:.67;"/><polygon points="136.19 83.36 141.1 83.36 138.06 94.01 133.15 94.01 136.19 83.36" style="fill:#f38020; opacity:.34;"/><polygon points="131.59 83.21 135.28 83.21 132.25 93.86 128.55 93.86 131.59 83.21" style="fill:#f38020; opacity:.13;"/><polygon points="158.9 88.68 153.14 81.1 153.14 96.27 158.9 88.68" style="fill:#f38020;"/></g></g><g id="j"><g><path d="m260.51,4.75l.39-.43c.33.29.76.49,1.23.49.55,0,.85-.24.85-.57,0-.4-.32-.51-.74-.68l-.61-.25c-.44-.17-.92-.47-.92-1.07,0-.64.61-1.12,1.46-1.12.53,0,1.02.2,1.36.51l-.34.4c-.29-.23-.6-.37-1.04-.37s-.76.2-.76.54c0,.36.37.49.75.62l.59.25c.54.2.95.5.95,1.1,0,.66-.58,1.19-1.56,1.19-.62,0-1.18-.23-1.59-.6Z" style="fill:#59595c;"/><path d="m264.47,1.18h1.36c.95,0,1.62.31,1.62,1.23s-.68,1.3-1.62,1.3h-.7v1.56h-.66V1.18Zm1.3,2.03c.69,0,1.03-.25,1.03-.79s-.34-.73-1.03-.73h-.64v1.52h.64Z" style="fill:#59595c;"/><path d="m268.98,4.76c0-.34.26-.58.59-.58s.59.25.59.58-.26.58-.59.58-.59-.24-.59-.58Z" style="fill:#59595c;"/><path d="m272.99,3.83l-1.43-2.66h.7l.59,1.15c.16.32.3.63.47.95h.03c.16-.33.33-.63.48-.95l.58-1.15h.68l-1.43,2.66v1.44h-.66v-1.44Z" style="fill:#59595c;"/><path d="m275.39,3.21c0-1.34.69-2.1,1.68-2.1s1.68.77,1.68,2.1-.69,2.14-1.68,2.14-1.68-.78-1.68-2.14Zm2.67,0c0-.98-.4-1.56-1-1.56s-1,.57-1,1.56.4,1.59,1,1.59,1-.59,1-1.59Z" style="fill:#59595c;"/><path d="m279.33,3.72V1.18h.67v2.57c0,.75.34,1.05.82,1.05s.84-.3.84-1.05V1.18h.64v2.54c0,1.15-.58,1.63-1.47,1.63s-1.49-.49-1.49-1.63Z" style="fill:#59595c;"/><path d="m283.19,1.18h1.4c.88,0,1.55.3,1.55,1.19s-.67,1.25-1.55,1.25h-.73v1.66h-.67V1.18Zm1.32,1.93c.63,0,.97-.25.97-.74s-.34-.68-.97-.68h-.65v1.42h.65Zm.45-.02l1.33,2.19h-.75l-1.08-1.83.5-.36Z" style="fill:#59595c;"/><path d="m286.75,4.75l.39-.43c.33.29.76.49,1.23.49.55,0,.85-.24.85-.57,0-.4-.32-.51-.74-.68l-.61-.25c-.44-.17-.92-.47-.92-1.07,0-.64.61-1.12,1.46-1.12.53,0,1.02.2,1.36.51l-.34.4c-.29-.23-.6-.37-1.04-.37s-.76.2-.76.54c0,.36.37.49.75.62l.59.25c.54.2.95.5.95,1.1,0,.66-.58,1.19-1.56,1.19-.62,0-1.18-.23-1.59-.6Z" style="fill:#59595c;"/><path d="m290.67,4.74h1.06V1.71h-1.06v-.53h2.77v.53h-1.06v3.04h1.06v.53h-2.77v-.53Z" style="fill:#59595c;"/><path d="m295.48,1.71h-1.39v-.53h3.45v.53h-1.39v3.57h-.66V1.71Z" style="fill:#59595c;"/><path d="m298.29,1.18h2.72v.53h-2.06v1.16h1.74v.53h-1.74v1.35h2.12v.53h-2.79V1.18Z" style="fill:#59595c;"/><path d="m302.71,4.76c0-.34.26-.58.59-.58s.59.25.59.58-.26.58-.59.58-.59-.24-.59-.58Z" style="fill:#59595c;"/><path d="m305.48,3.23c0-1.33.83-2.13,1.97-2.13.53,0,.95.24,1.21.5l-.37.39c-.22-.21-.49-.35-.84-.35-.77,0-1.28.6-1.28,1.56s.52,1.58,1.29,1.58c.37,0,.66-.16.92-.43l.37.38c-.34.38-.78.6-1.36.6-1.07,0-1.91-.77-1.91-2.12Z" style="fill:#59595c;"/><path d="m309.12,3.21c0-1.34.69-2.1,1.68-2.1s1.68.77,1.68,2.1-.69,2.14-1.68,2.14-1.68-.78-1.68-2.14Zm2.67,0c0-.98-.4-1.56-1-1.56s-1,.57-1,1.56.4,1.59,1,1.59,1-.59,1-1.59Z" style="fill:#59595c;"/><path d="m313.02,1.18h.76l.56,1.67.19.64h.03l.19-.64.56-1.67h.76v4.1h-.6v-1.85c0-.42.07-1.19.1-1.57h-.02l-.27.88-.55,1.45h-.42l-.54-1.45-.27-.88h-.02c.04.37.1,1.15.1,1.57v1.85h-.59V1.18Z" style="fill:#59595c;"/></g><g><path d="m131.99,1.1h.72l.27,2.47c.03.35.05.57.07.97h.02c.07-.4.13-.62.21-.96l.39-1.43h.55l.37,1.43c.09.34.14.57.21.96h.03c.02-.4.03-.63.06-.96l.26-2.48h.68l-.61,4.1h-.78l-.38-1.55c-.06-.25-.11-.5-.15-.75h-.02c-.04.25-.08.5-.14.75l-.38,1.55h-.76l-.64-4.1Z" style="fill:#59595c;"/><path d="m135.74,1.1h.72l.27,2.47c.03.35.05.57.07.97h.02c.07-.4.13-.62.21-.96l.39-1.43h.55l.37,1.43c.09.34.14.57.21.96h.03c.02-.4.03-.63.06-.96l.26-2.48h.68l-.61,4.1h-.78l-.38-1.55c-.06-.25-.11-.5-.15-.75h-.02c-.04.25-.08.5-.14.75l-.38,1.55h-.76l-.64-4.1Z" style="fill:#59595c;"/><path d="m139.49,1.1h.72l.27,2.47c.03.35.05.57.07.97h.02c.07-.4.13-.62.21-.96l.39-1.43h.55l.37,1.43c.09.34.14.57.21.96h.03c.02-.4.03-.63.06-.96l.26-2.48h.68l-.61,4.1h-.78l-.38-1.55c-.06-.25-.11-.5-.15-.75h-.02c-.04.25-.08.5-.14.75l-.38,1.55h-.76l-.64-4.1Z" style="fill:#59595c;"/><path d="m144.56,4.69c0-.34.26-.58.59-.58s.59.25.59.58-.26.58-.59.58-.59-.24-.59-.58Z" style="fill:#59595c;"/><path d="m148.57,3.76l-1.43-2.66h.7l.59,1.15c.15.32.3.63.47.95h.03c.16-.33.33-.63.48-.95l.58-1.15h.68l-1.43,2.66v1.44h-.66v-1.44Z" style="fill:#59595c;"/><path d="m150.97,3.13c0-1.34.69-2.1,1.68-2.1s1.68.77,1.68,2.1-.69,2.14-1.68,2.14-1.68-.78-1.68-2.14Zm2.67,0c0-.98-.39-1.56-.99-1.56s-1,.57-1,1.56.4,1.59,1,1.59.99-.59.99-1.59Z" style="fill:#59595c;"/><path d="m154.92,3.64V1.1h.67v2.57c0,.75.34,1.05.82,1.05s.84-.3.84-1.05V1.1h.64v2.54c0,1.15-.58,1.63-1.47,1.63s-1.49-.49-1.49-1.63Z" style="fill:#59595c;"/><path d="m158.77,1.1h1.4c.88,0,1.55.3,1.55,1.19s-.67,1.25-1.55,1.25h-.73v1.66h-.67V1.1Zm1.32,1.93c.63,0,.98-.25.98-.74s-.34-.68-.98-.68h-.65v1.42h.65Zm.45-.02l1.33,2.19h-.75l-1.08-1.83.5-.36Z" style="fill:#59595c;"/><path d="m162.33,4.67l.39-.43c.33.29.76.49,1.23.49.55,0,.85-.24.85-.57,0-.4-.32-.51-.74-.68l-.61-.25c-.44-.17-.92-.47-.92-1.07,0-.64.61-1.12,1.46-1.12.53,0,1.02.2,1.36.51l-.34.4c-.29-.23-.6-.37-1.04-.37s-.76.2-.76.54c0,.36.37.49.75.62l.58.25c.54.2.95.5.95,1.1,0,.66-.58,1.19-1.56,1.19-.62,0-1.18-.23-1.59-.6Z" style="fill:#59595c;"/><path d="m166.26,4.67h1.06V1.63h-1.06v-.53h2.77v.53h-1.06v3.04h1.06v.53h-2.77v-.53Z" style="fill:#59595c;"/><path d="m171.06,1.63h-1.39v-.53h3.45v.53h-1.39v3.57h-.66V1.63Z" style="fill:#59595c;"/><path d="m173.88,1.1h2.72v.53h-2.06v1.16h1.74v.53h-1.74v1.35h2.12v.53h-2.79V1.1Z" style="fill:#59595c;"/><path d="m178.29,4.69c0-.34.26-.58.59-.58s.59.25.59.58-.26.58-.59.58-.59-.24-.59-.58Z" style="fill:#59595c;"/><path d="m181.07,3.16c0-1.33.83-2.13,1.97-2.13.53,0,.95.24,1.21.5l-.37.39c-.22-.21-.49-.35-.84-.35-.77,0-1.28.6-1.28,1.56s.52,1.58,1.29,1.58c.37,0,.67-.16.92-.43l.37.38c-.34.38-.78.6-1.36.6-1.07,0-1.91-.77-1.91-2.12Z" style="fill:#59595c;"/><path d="m184.71,3.13c0-1.34.69-2.1,1.68-2.1s1.68.77,1.68,2.1-.69,2.14-1.68,2.14-1.68-.78-1.68-2.14Zm2.67,0c0-.98-.4-1.56-1-1.56s-1,.57-1,1.56.4,1.59,1,1.59,1-.59,1-1.59Z" style="fill:#59595c;"/><path d="m188.6,1.1h.76l.56,1.67.19.64h.03l.19-.64.56-1.67h.76v4.1h-.6v-1.85c0-.42.07-1.19.1-1.57h-.02l-.27.88-.55,1.45h-.42l-.54-1.45-.26-.88h-.02c.04.37.1,1.15.1,1.57v1.85h-.59V1.1Z" style="fill:#59595c;"/><path d="m194.68.76h.57l-2.16,5.44h-.57l2.16-5.44Z" style="fill:#59595c;"/><path d="m196.06,3.16c0-1.33.83-2.13,1.97-2.13.53,0,.95.24,1.21.5l-.37.39c-.22-.21-.49-.35-.84-.35-.77,0-1.28.6-1.28,1.56s.52,1.58,1.29,1.58c.37,0,.67-.16.92-.43l.37.38c-.34.38-.78.6-1.36.6-1.07,0-1.91-.77-1.91-2.12Z" style="fill:#59595c;"/><path d="m199.7,3.13c0-1.34.69-2.1,1.68-2.1s1.68.77,1.68,2.1-.69,2.14-1.68,2.14-1.68-.78-1.68-2.14Zm2.67,0c0-.98-.4-1.56-1-1.56s-1,.57-1,1.56.4,1.59,1,1.59,1-.59,1-1.59Z" style="fill:#59595c;"/><path d="m203.98,1.1h.66v3.57h2.08v.53h-2.74V1.1Z" style="fill:#59595c;"/><path d="m207.73,1.1h.66v3.57h2.08v.53h-2.74V1.1Z" style="fill:#59595c;"/><path d="m211.36,1.1h2.72v.53h-2.06v1.16h1.74v.53h-1.74v1.35h2.12v.53h-2.79V1.1Z" style="fill:#59595c;"/><path d="m214.8,3.16c0-1.33.83-2.13,1.97-2.13.53,0,.95.24,1.21.5l-.37.39c-.22-.21-.49-.35-.84-.35-.77,0-1.28.6-1.28,1.56s.52,1.58,1.29,1.58c.37,0,.67-.16.92-.43l.37.38c-.34.38-.78.6-1.36.6-1.07,0-1.91-.77-1.91-2.12Z" style="fill:#59595c;"/><path d="m219.79,1.63h-1.39v-.53h3.45v.53h-1.39v3.57h-.66V1.63Z" style="fill:#59595c;"/><path d="m222.19,3.13c0-1.34.69-2.1,1.68-2.1s1.68.77,1.68,2.1-.69,2.14-1.68,2.14-1.68-.78-1.68-2.14Zm2.67,0c0-.98-.4-1.56-1-1.56s-1,.57-1,1.56.4,1.59,1,1.59,1-.59,1-1.59Z" style="fill:#59595c;"/><path d="m226.24,1.1h1.4c.89,0,1.55.3,1.55,1.19s-.67,1.25-1.55,1.25h-.73v1.66h-.67V1.1Zm1.32,1.93c.63,0,.97-.25.97-.74s-.34-.68-.97-.68h-.65v1.42h.65Zm.45-.02l1.33,2.19h-.75l-1.08-1.83.5-.36Z" style="fill:#59595c;"/></g><g><path d="m164.05,89.98l.39-.43c.33.29.76.49,1.23.49.55,0,.85-.24.85-.57,0-.4-.32-.51-.74-.68l-.61-.25c-.44-.17-.92-.47-.92-1.07,0-.64.61-1.12,1.46-1.12.53,0,1.02.2,1.36.51l-.34.4c-.29-.23-.6-.37-1.04-.37s-.76.2-.76.54c0,.36.37.49.75.62l.58.25c.54.2.95.5.95,1.1,0,.66-.58,1.19-1.56,1.19-.62,0-1.18-.23-1.59-.6Z" style="fill:#58595b;"/><path d="m168.1,86.41h2.72v.53h-2.06v1.16h1.74v.53h-1.74v1.35h2.12v.53h-2.79v-4.1Z" style="fill:#58595b;"/><path d="m171.74,86.41h1.4c.89,0,1.55.3,1.55,1.19s-.67,1.25-1.55,1.25h-.73v1.66h-.67v-4.1Zm1.32,1.93c.63,0,.98-.25.98-.74s-.34-.68-.98-.68h-.65v1.42h.65Zm.45-.02l1.33,2.19h-.75l-1.08-1.83.5-.36Z" style="fill:#58595b;"/><path d="m175.11,86.41h.71l.65,2.13c.15.47.25.87.4,1.34h.03c.15-.47.26-.87.4-1.34l.64-2.13h.68l-1.35,4.1h-.78l-1.36-4.1Z" style="fill:#58595b;"/><path d="m179.34,86.41h2.72v.53h-2.06v1.16h1.74v.53h-1.74v1.35h2.12v.53h-2.79v-4.1Z" style="fill:#58595b;"/><path d="m182.98,86.41h1.4c.89,0,1.55.3,1.55,1.19s-.67,1.25-1.55,1.25h-.73v1.66h-.67v-4.1Zm1.32,1.93c.63,0,.98-.25.98-.74s-.34-.68-.98-.68h-.65v1.42h.65Zm.45-.02l1.33,2.19h-.75l-1.08-1.83.5-.36Z" style="fill:#58595b;"/><path d="m186.66,88.21h2.89v.46h-2.89v-.46Z" style="fill:#58595b;"/><path d="m190.29,89.98l.39-.43c.33.29.76.49,1.23.49.55,0,.85-.24.85-.57,0-.4-.32-.51-.74-.68l-.61-.25c-.44-.17-.92-.47-.92-1.07,0-.64.61-1.12,1.46-1.12.53,0,1.02.2,1.36.51l-.34.4c-.29-.23-.6-.37-1.04-.37s-.76.2-.76.54c0,.36.37.49.75.62l.58.25c.54.2.95.5.95,1.1,0,.66-.58,1.19-1.56,1.19-.62,0-1.18-.23-1.59-.6Z" style="fill:#58595b;"/><path d="m194.21,89.98h1.06v-3.04h-1.06v-.53h2.77v.53h-1.06v3.04h1.06v.53h-2.77v-.53Z" style="fill:#58595b;"/><path d="m197.92,86.41h1.1c1.28,0,2.02.7,2.02,2.03s-.74,2.07-1.99,2.07h-1.13v-4.1Zm1.05,3.58c.9,0,1.38-.53,1.38-1.55s-.48-1.52-1.38-1.52h-.39v3.07h.39Z" style="fill:#58595b;"/><path d="m201.83,86.41h2.72v.53h-2.06v1.16h1.74v.53h-1.74v1.35h2.12v.53h-2.79v-4.1Z" style="fill:#58595b;"/></g><g><path d="m50.25,88.46c0-1.33.83-2.13,1.97-2.13.53,0,.95.24,1.21.5l-.37.39c-.22-.21-.49-.35-.84-.35-.77,0-1.28.6-1.28,1.56s.52,1.58,1.29,1.58c.37,0,.67-.16.92-.43l.37.38c-.34.38-.78.6-1.36.6-1.07,0-1.91-.77-1.91-2.12Z" style="fill:#58595b;"/><path d="m54.42,86.41h.66v3.57h2.08v.53h-2.74v-4.1Z" style="fill:#58595b;"/><path d="m57.92,89.98h1.06v-3.04h-1.06v-.53h2.77v.53h-1.06v3.04h1.06v.53h-2.77v-.53Z" style="fill:#58595b;"/><path d="m61.8,86.41h2.72v.53h-2.06v1.16h1.74v.53h-1.74v1.35h2.12v.53h-2.79v-4.1Z" style="fill:#58595b;"/><path d="m65.34,86.41h.71l1.26,2.43.4.86h.02c-.03-.41-.09-.9-.09-1.35v-1.95h.63v4.1h-.71l-1.26-2.44-.4-.86h-.02c.03.43.09.89.09,1.33v1.96h-.63v-4.1Z" style="fill:#58595b;"/><path d="m70.23,86.94h-1.39v-.53h3.45v.53h-1.39v3.57h-.66v-3.57Z" style="fill:#58595b;"/><path d="m72.86,88.21h2.89v.46h-2.89v-.46Z" style="fill:#58595b;"/><path d="m76.49,89.98l.39-.43c.33.29.76.49,1.23.49.55,0,.85-.24.85-.57,0-.4-.32-.51-.74-.68l-.61-.25c-.44-.17-.92-.47-.92-1.07,0-.64.61-1.12,1.46-1.12.53,0,1.02.2,1.36.51l-.34.4c-.29-.23-.6-.37-1.04-.37s-.76.2-.76.54c0,.36.37.49.75.62l.59.25c.54.2.95.5.95,1.1,0,.66-.58,1.19-1.56,1.19-.62,0-1.18-.23-1.59-.6Z" style="fill:#58595b;"/><path d="m80.41,89.98h1.06v-3.04h-1.06v-.53h2.77v.53h-1.06v3.04h1.06v.53h-2.77v-.53Z" style="fill:#58595b;"/><path d="m84.12,86.41h1.1c1.29,0,2.02.7,2.02,2.03s-.73,2.07-1.99,2.07h-1.13v-4.1Zm1.06,3.58c.9,0,1.38-.53,1.38-1.55s-.48-1.52-1.38-1.52h-.39v3.07h.39Z" style="fill:#58595b;"/><path d="m88.03,86.41h2.72v.53h-2.06v1.16h1.74v.53h-1.74v1.35h2.12v.53h-2.79v-4.1Z" style="fill:#58595b;"/></g><g><path d="m269.46,50.31c0-1.33.83-2.13,1.97-2.13.53,0,.95.24,1.21.5l-.37.39c-.22-.21-.49-.35-.84-.35-.77,0-1.28.6-1.28,1.56s.52,1.58,1.29,1.58c.37,0,.67-.16.92-.43l.37.38c-.34.38-.78.6-1.36.6-1.07,0-1.91-.77-1.91-2.12Z" style="fill:#59595c;"/><path d="m273.1,50.29c0-1.34.69-2.1,1.68-2.1s1.68.77,1.68,2.1-.69,2.14-1.68,2.14-1.68-.78-1.68-2.14Zm2.67,0c0-.98-.4-1.56-1-1.56s-1,.57-1,1.56.4,1.59,1,1.59,1-.59,1-1.59Z" style="fill:#59595c;"/><path d="m277.38,48.26h.66v3.57h2.08v.53h-2.74v-4.1Z" style="fill:#59595c;"/><path d="m281.13,48.26h.66v3.57h2.08v.53h-2.74v-4.1Z" style="fill:#59595c;"/><path d="m284.76,48.26h2.72v.53h-2.06v1.16h1.74v.53h-1.74v1.35h2.12v.53h-2.79v-4.1Z" style="fill:#59595c;"/><path d="m288.2,50.31c0-1.33.83-2.13,1.97-2.13.53,0,.95.24,1.21.5l-.37.39c-.22-.21-.49-.35-.84-.35-.77,0-1.28.6-1.28,1.56s.52,1.58,1.29,1.58c.37,0,.67-.16.92-.43l.37.38c-.34.38-.78.6-1.36.6-1.07,0-1.91-.77-1.91-2.12Z" style="fill:#59595c;"/><path d="m293.18,48.79h-1.39v-.53h3.45v.53h-1.39v3.57h-.66v-3.57Z" style="fill:#59595c;"/><path d="m295.58,50.29c0-1.34.69-2.1,1.68-2.1s1.68.77,1.68,2.1-.69,2.14-1.68,2.14-1.68-.78-1.68-2.14Zm2.67,0c0-.98-.4-1.56-1-1.56s-1,.57-1,1.56.4,1.59,1,1.59,1-.59,1-1.59Z" style="fill:#59595c;"/><path d="m299.63,48.26h1.4c.88,0,1.55.3,1.55,1.19s-.67,1.25-1.55,1.25h-.73v1.66h-.67v-4.1Zm1.32,1.93c.63,0,.97-.25.97-.74s-.34-.68-.97-.68h-.65v1.42h.65Zm.45-.02l1.33,2.19h-.75l-1.08-1.83.5-.36Z" style="fill:#59595c;"/></g><g><path d="m203.65,48.25h.72l.27,2.47c.03.35.05.57.07.97h.02c.07-.4.13-.62.21-.96l.39-1.43h.55l.37,1.43c.09.34.14.57.21.96h.03c.02-.4.03-.63.06-.96l.26-2.48h.69l-.61,4.1h-.78l-.38-1.55c-.06-.25-.11-.5-.15-.75h-.02c-.04.25-.08.5-.14.75l-.38,1.55h-.76l-.64-4.1Z" style="fill:#59595c;"/><path d="m207.64,50.29c0-1.34.69-2.1,1.68-2.1s1.68.77,1.68,2.1-.69,2.14-1.68,2.14-1.68-.78-1.68-2.14Zm2.67,0c0-.98-.4-1.56-1-1.56s-.99.57-.99,1.56.39,1.59.99,1.59,1-.59,1-1.59Z" style="fill:#59595c;"/><path d="m211.69,48.26h1.4c.89,0,1.55.3,1.55,1.19s-.67,1.25-1.55,1.25h-.73v1.66h-.67v-4.1Zm1.32,1.93c.63,0,.97-.25.97-.74s-.34-.68-.97-.68h-.65v1.42h.65Zm.45-.02l1.33,2.19h-.75l-1.08-1.83.5-.36Z" style="fill:#59595c;"/><path d="m215.42,48.26h.67v1.95h.02l1.67-1.95h.75l-2.44,2.84v1.26h-.67v-4.1Zm1.27,1.91l.4-.49,1.59,2.68h-.74l-1.24-2.19Z" style="fill:#59595c;"/><path d="m219.3,48.26h2.72v.53h-2.06v1.16h1.74v.53h-1.74v1.35h2.12v.53h-2.79v-4.1Z" style="fill:#59595c;"/><path d="m222.93,48.26h1.4c.89,0,1.55.3,1.55,1.19s-.67,1.25-1.55,1.25h-.73v1.66h-.67v-4.1Zm1.32,1.93c.63,0,.97-.25.97-.74s-.34-.68-.97-.68h-.65v1.42h.65Zm.45-.02l1.33,2.19h-.75l-1.08-1.83.5-.36Z" style="fill:#59595c;"/></g><g><path d="m141.3,50.31c0-1.33.83-2.13,1.97-2.13.53,0,.95.24,1.21.5l-.37.39c-.22-.21-.49-.35-.84-.35-.77,0-1.28.6-1.28,1.56s.52,1.58,1.29,1.58c.37,0,.67-.16.92-.43l.37.38c-.34.38-.78.6-1.36.6-1.07,0-1.91-.77-1.91-2.12Z" style="fill:#59595c;"/><path d="m145.18,48.26h1.1c1.29,0,2.02.7,2.02,2.03s-.73,2.07-1.99,2.07h-1.13v-4.1Zm1.06,3.58c.9,0,1.38-.53,1.38-1.55s-.48-1.52-1.38-1.52h-.39v3.07h.39Z" style="fill:#59595c;"/><path d="m148.9,48.26h.71l1.26,2.43.4.86h.02c-.03-.41-.09-.9-.09-1.35v-1.95h.63v4.1h-.71l-1.26-2.44-.4-.86h-.02c.03.43.09.89.09,1.33v1.96h-.63v-4.1Z" style="fill:#59595c;"/></g><g><path d="m61.86,51.83h1.06v-3.04h-1.06v-.53h2.77v.53h-1.06v3.04h1.06v.53h-2.77v-.53Z" style="fill:#59595c;"/><path d="m65.54,48.26h.71l1.26,2.43.4.86h.02c-.03-.41-.09-.9-.09-1.35v-1.95h.63v4.1h-.71l-1.26-2.44-.4-.86h-.02c.03.43.09.89.09,1.33v1.96h-.63v-4.1Z" style="fill:#59595c;"/><path d="m70.42,48.79h-1.39v-.53h3.45v.53h-1.39v3.57h-.66v-3.57Z" style="fill:#59595c;"/><path d="m73.23,48.26h2.72v.53h-2.06v1.16h1.74v.53h-1.74v1.35h2.12v.53h-2.79v-4.1Z" style="fill:#59595c;"/><path d="m76.87,48.26h1.4c.89,0,1.55.3,1.55,1.19s-.67,1.25-1.55,1.25h-.73v1.66h-.67v-4.1Zm1.32,1.93c.63,0,.97-.25.97-.74s-.34-.68-.97-.68h-.65v1.42h.65Zm.45-.02l1.33,2.19h-.75l-1.08-1.83.5-.36Z" style="fill:#59595c;"/><path d="m80.53,48.26h.71l1.26,2.43.4.86h.02c-.03-.41-.09-.9-.09-1.35v-1.95h.63v4.1h-.71l-1.26-2.44-.4-.86h-.02c.03.43.09.89.09,1.33v1.96h-.63v-4.1Z" style="fill:#59595c;"/><path d="m84.48,48.26h2.72v.53h-2.06v1.16h1.74v.53h-1.74v1.35h2.12v.53h-2.79v-4.1Z" style="fill:#59595c;"/><path d="m89.16,48.79h-1.39v-.53h3.45v.53h-1.39v3.57h-.66v-3.57Z" style="fill:#59595c;"/></g><g><path d="m.79,50.31c0-1.33.83-2.13,1.97-2.13.53,0,.95.24,1.21.5l-.37.39c-.22-.21-.49-.35-.84-.35-.77,0-1.28.6-1.28,1.56s.52,1.58,1.29,1.58c.37,0,.67-.16.92-.43l.37.38c-.34.38-.78.6-1.36.6-1.07,0-1.91-.77-1.91-2.12Z" style="fill:#59595c;"/><path d="m4.96,48.26h.66v3.57h2.08v.53h-2.74v-4.1Z" style="fill:#59595c;"/><path d="m8.46,51.83h1.06v-3.04h-1.06v-.53h2.77v.53h-1.06v3.04h1.06v.53h-2.77v-.53Z" style="fill:#59595c;"/><path d="m12.33,48.26h2.72v.53h-2.06v1.16h1.74v.53h-1.74v1.35h2.12v.53h-2.79v-4.1Z" style="fill:#59595c;"/><path d="m15.88,48.26h.71l1.26,2.43.4.86h.02c-.03-.41-.09-.9-.09-1.35v-1.95h.63v4.1h-.71l-1.26-2.44-.4-.86h-.02c.03.43.09.89.09,1.33v1.96h-.63v-4.1Z" style="fill:#59595c;"/><path d="m20.76,48.79h-1.39v-.53h3.45v.53h-1.39v3.57h-.66v-3.57Z" style="fill:#59595c;"/></g></g></svg>