<?xml version="1.0" encoding="UTF-8"?><svg id="b" xmlns="http://www.w3.org/2000/svg" viewBox="0 0 1175.06 349.89"><g id="c"><g><g><path d="m1065.86,297.16l-183.76.31" style="stroke:#009ce0; stroke-miterlimit:4; stroke-width:7.14px;"/><polygon points="882.1 297.48 885.18 287.13 854.18 297.52 885.22 307.81 882.1 297.48" style="fill:#009ce0;"/></g><g><rect x="923.77" y="288.04" width="100.42" height="18.56" rx="3.57" ry="3.57" transform="translate(-.5 1.65) rotate(-.1)" style="fill:#fff;"/><text transform="translate(927.35 300.59) rotate(-.1)" style="font-family:Helvetica, Helvetica; font-size:11.42px; isolation:isolate;"><tspan x="0" y="0">HAS_IDENTIFIER</tspan></text></g></g><g><g><path d="m620.82,296.33l114.08.78" style="stroke:#d33115; stroke-miterlimit:4; stroke-width:7.14px;"/><polygon points="734.9 297.1 731.73 307.42 762.82 297.29 731.87 286.74 734.9 297.1" style="fill:#d33115;"/></g><g><rect x="668.58" y="246.51" width="18.56" height="100.42" rx="3.57" ry="3.57" transform="translate(376.55 972.54) rotate(-89.61)" style="fill:#fff;"/><text transform="translate(631.2 299.58) rotate(.39)" style="fill:#9f0500; font-family:Helvetica, Helvetica; font-size:11.42px; isolation:isolate;"><tspan x="0" y="0">HAS_IDENTIFIER</tspan></text></g></g><g><g><path d="m529.46,42.11h-130.81" style="stroke:#68bc00; stroke-width:3.57px;"/><polygon points="398.65 42.11 400.62 35.54 380.9 42.11 400.62 48.68 398.65 42.11" style="fill:#68bc00;"/></g><g><rect x="426.53" y="32.83" width="75.04" height="18.56" rx="3.57" ry="3.57" style="fill:#fff;"/><text transform="translate(430.1 45.29)" style="fill:#194d33; font-family:Helvetica, Helvetica; font-size:11.42px; isolation:isolate;"><tspan x="0" y="0">HAS_EVEN</tspan><tspan x="60.93" y="0" style="letter-spacing:-.02em;">T</tspan></text></g></g><g><g><path d="m289.54,42.11h-130.81" style="stroke:#009ce0; stroke-width:3.57px;"/><polygon points="158.73 42.11 160.7 35.54 140.98 42.11 160.7 48.68 158.73 42.11" style="fill:#009ce0;"/></g><g><rect x="171.71" y="32.83" width="104.86" height="18.56" rx="3.57" ry="3.57" style="fill:#fff;"/><text transform="translate(175.27 45.29)" style="fill:#0062b1; font-family:Helvetica, Helvetica; font-size:11.42px; isolation:isolate;"><tspan x="0" y="0">HAS_MARKETING</tspan></text></g></g><g><g><path d="m289.54,296.64l-130.81.29" style="stroke:#009ce0; stroke-miterlimit:4; stroke-width:3.57px;"/><polygon points="158.73 296.93 160.69 290.35 140.98 296.97 160.71 303.5 158.73 296.93" style="fill:#009ce0;"/></g><g><rect x="171.71" y="287.51" width="104.86" height="18.56" rx="3.57" ry="3.57" transform="translate(-.65 .49) rotate(-.13)" style="fill:#fff;"/><text transform="translate(175.3 300.09) rotate(-.13)" style="fill:#0062b1; font-family:Helvetica, Helvetica; font-size:11.42px; isolation:isolate;"><tspan x="0" y="0">HAS_MARKETING</tspan></text></g></g><g><g><path d="m620.82,42.11h114.08" style="stroke:#d33115; stroke-width:7.14px;"/><polygon points="734.9 42.11 731.8 52.45 762.82 42.11 731.8 31.77 734.9 42.11" style="fill:#d33115;"/></g><g><rect x="627.65" y="32.83" width="100.42" height="18.56" rx="3.57" ry="3.57" style="fill:#fff;"/><text transform="translate(631.22 45.29)" style="fill:#9f0500; font-family:Helvetica, Helvetica; font-size:11.42px; isolation:isolate;"><tspan x="0" y="0">HAS_IDENTIFIER</tspan></text></g></g><g><g><path d="m529.46,296.11l-130.81.29" style="stroke:#68bc00; stroke-miterlimit:4; stroke-width:3.57px;"/><polygon points="398.65 296.4 400.6 289.83 380.9 296.44 400.63 302.97 398.65 296.4" style="fill:#68bc00;"/></g><g><rect x="426.53" y="286.98" width="75.04" height="18.56" rx="3.57" ry="3.57" transform="translate(-.65 1.02) rotate(-.13)" style="fill:#fff;"/><text transform="translate(430.13 299.53) rotate(-.13)" style="fill:#194d33; font-family:Helvetica, Helvetica; font-size:11.42px; isolation:isolate;"><tspan x="0" y="0">HAS_EVEN</tspan><tspan x="60.93" y="0" style="letter-spacing:-.02em;">T</tspan></text></g></g><g><g><path d="m534.05,62.06l-141.76,68.8" style="stroke:#68bc00; stroke-miterlimit:4; stroke-width:3.57px;"/><polygon points="392.28 130.86 391.19 124.08 376.32 138.61 396.93 135.91 392.28 130.86" style="fill:#68bc00;"/></g><g><rect x="425.64" y="87.18" width="75.04" height="18.56" rx="3.57" ry="3.57" transform="translate(4.37 211.91) rotate(-25.89)" style="fill:#fff;"/><text transform="translate(434.01 114.14) rotate(-25.89)" style="fill:#194d33; font-family:Helvetica, Helvetica; font-size:11.42px; isolation:isolate;"><tspan x="0" y="0">HAS_EVEN</tspan><tspan x="60.93" y="0" style="letter-spacing:-.02em;">T</tspan></text></g></g><g><circle cx="575.14" cy="42.11" r="40.68" style="fill:#aea1ff; stroke:#653294; stroke-width:2.86px;"/><g><text transform="translate(544.33 37.51)" style="fill:#653294; font-family:Helvetica, Helvetica; font-size:15.26px; isolation:isolate;"><tspan x="0" y="0" style="letter-spacing:-.02em;">W</tspan><tspan x="14.13" y="0">ebview</tspan></text><g><path d="m556.49,43.64h37.31c4.55,0,8.24,3.69,8.24,8.24h0c0,4.55-3.69,8.24-8.24,8.24h-37.31c-4.55,0-8.24-3.69-8.24-8.24h0c0-4.55,3.69-8.24,8.24-8.24Z" style="fill:#653294; stroke:#653294; stroke-miterlimit:1.71; stroke-width:1.22px;"/><text transform="translate(556.49 55.28)" style="fill:#fff; font-family:Helvetica, Helvetica; font-size:12.21px; isolation:isolate;"><tspan x="0" y="0">Device</tspan></text></g></g></g><g><circle cx="1122.24" cy="297.07" r="51.39" style="fill:#009ce0; stroke:#0062b1; stroke-width:2.86px;"/><g><g><text transform="translate(1104.82 282.59)" style="fill:#fff; font-family:Helvetica, Helvetica; font-size:16.07px; isolation:isolate;"><tspan x="0" y="0">Joao</tspan></text><text transform="translate(1095.9 301.87)" style="fill:#fff; font-family:Helvetica, Helvetica; font-size:16.07px; isolation:isolate;"><tspan x="0" y="0">Correia</tspan></text></g><g><path d="m1094.39,308.32h55.71c4.79,0,8.68,3.88,8.68,8.68h0c0,4.79-3.88,8.68-8.68,8.68h-55.71c-4.79,0-8.68-3.88-8.68-8.68h0c0-4.79,3.88-8.68,8.68-8.68Z" style="fill:#0062b1; stroke:#0062b1; stroke-miterlimit:1.8; stroke-width:1.29px;"/><text transform="translate(1094.39 320.57)" style="fill:#fff; font-family:Helvetica, Helvetica; font-size:12.85px; isolation:isolate;"><tspan x="0" y="0">Customer</tspan></text></g></g></g><g><circle cx="808.5" cy="297.6" r="40.68" style="fill:#f44e3b; stroke:#9f0500; stroke-width:2.86px;"/><g><text transform="translate(776.72 293.45)" style="fill:#fff; font-family:Helvetica, Helvetica; font-size:13.77px; isolation:isolate;"><tspan x="0" y="0">C8573621</tspan></text><g><path d="m787.37,298.98h42.25c4.11,0,7.44,3.33,7.44,7.44h0c0,4.11-3.33,7.44-7.44,7.44h-42.25c-4.11,0-7.44-3.33-7.44-7.44h0c0-4.11,3.33-7.44,7.44-7.44Z" style="fill:#9f0500; stroke:#9f0500; stroke-miterlimit:1.54; stroke-width:1.1px;"/><text transform="translate(787.37 309.48)" style="fill:#fff; font-family:Helvetica, Helvetica; font-size:11.02px; isolation:isolate;"><tspan x="0" y="0">Identifier</tspan></text></g></g></g><g><circle cx="575.14" cy="296.01" r="40.68" style="fill:#aea1ff; stroke:#653294; stroke-width:2.86px;"/><g><text transform="translate(545.13 291.08)" style="fill:#653294; font-family:Helvetica, Helvetica; font-size:16.36px; isolation:isolate;"><tspan x="0" y="0">Desktop</tspan></text><g><path d="m555.14,297.65h40.01c4.88,0,8.84,3.96,8.84,8.84h0c0,4.88-3.96,8.84-8.84,8.84h-40.01c-4.88,0-8.84-3.96-8.84-8.84h0c0-4.88,3.96-8.84,8.84-8.84Z" style="fill:#653294; stroke:#653294; stroke-miterlimit:1.83; stroke-width:1.31px;"/><text transform="translate(555.14 310.13)" style="fill:#fff; font-family:Helvetica, Helvetica; font-size:13.09px; isolation:isolate;"><tspan x="0" y="0">Device</tspan></text></g></g></g><g><circle cx="335.22" cy="296.54" r="40.68" style="fill:#a4dd00; stroke:#194d33; stroke-width:2.86px;"/><g><text transform="translate(311.93 291.05)" style="font-family:Helvetica, Helvetica; font-size:18.22px; isolation:isolate;"><tspan x="0" y="0">Order</tspan></text><g><path d="m316.58,298.36h37.28c5.43,0,9.84,4.41,9.84,9.84h0c0,5.43-4.41,9.84-9.84,9.84h-37.28c-5.43,0-9.84-4.41-9.84-9.84h0c0-5.43,4.41-9.84,9.84-9.84Z" style="fill:#194d33; stroke:#194d33; stroke-miterlimit:2.04; stroke-width:1.46px;"/><text transform="translate(316.58 312.27)" style="fill:#fff; font-family:Helvetica, Helvetica; font-size:14.58px; isolation:isolate;"><tspan x="0" y="0">Event</tspan></text></g></g></g><g><circle cx="335.22" cy="158.55" r="40.68" style="fill:#a4dd00; stroke:#194d33; stroke-width:2.86px;"/><g><text transform="translate(305.93 153.34)" style="fill:#194d33; font-family:Helvetica, Helvetica; font-size:17.27px; isolation:isolate;"><tspan x="0" y="0">Sign up</tspan></text><g><path d="m317.55,160.28h35.34c5.15,0,9.33,4.18,9.33,9.33h0c0,5.15-4.18,9.33-9.33,9.33h-35.34c-5.15,0-9.33-4.18-9.33-9.33h0c0-5.15,4.18-9.33,9.33-9.33Z" style="fill:#194d33; stroke:#194d33; stroke-miterlimit:1.94; stroke-width:1.38px;"/><text transform="translate(317.55 173.46)" style="fill:#fff; font-family:Helvetica, Helvetica; font-size:13.82px; isolation:isolate;"><tspan x="0" y="0">Event</tspan></text></g></g></g><g><circle cx="335.22" cy="42.11" r="40.68" style="fill:#a4dd00; stroke:#194d33; stroke-width:2.86px;"/><g><text transform="translate(306.09 36.84)" style="fill:#194d33; font-family:Helvetica, Helvetica; font-size:17.47px; isolation:isolate;"><tspan x="0" y="0">Browse</tspan></text><g><path d="m317.35,43.86h35.74c5.21,0,9.43,4.22,9.43,9.43h0c0,5.21-4.22,9.43-9.43,9.43h-35.74c-5.21,0-9.43-4.22-9.43-9.43h0c0-5.21,4.22-9.43,9.43-9.43Z" style="fill:#194d33; stroke:#194d33; stroke-miterlimit:1.96; stroke-width:1.4px;"/><text transform="translate(317.35 57.19)" style="fill:#fff; font-family:Helvetica, Helvetica; font-size:13.98px; isolation:isolate;"><tspan x="0" y="0">Event</tspan></text></g></g></g><g><circle cx="95.3" cy="42.11" r="40.68" style="fill:#73d8ff; stroke:#0062b1; stroke-width:2.86px;"/><g><text transform="translate(83.48 37.53)" style="fill:#0062b1; font-family:Helvetica, Helvetica; font-size:15.2px; isolation:isolate;"><tspan x="0" y="0">cpc</tspan></text><g><path d="m72.66,43.63h45.29c4.53,0,8.21,3.67,8.21,8.21h0c0,4.53-3.67,8.21-8.21,8.21h-45.29c-4.53,0-8.21-3.67-8.21-8.21h0c0-4.53,3.67-8.21,8.21-8.21Z" style="fill:#0062b1; stroke:#0062b1; stroke-miterlimit:1.7; stroke-width:1.22px;"/><text transform="translate(72.66 55.23)" style="fill:#fff; font-family:Helvetica, Helvetica; font-size:12.16px; isolation:isolate;"><tspan x="0" y="0">Channel</tspan></text></g></g></g><g><circle cx="95.3" cy="297.07" r="40.68" style="fill:#73d8ff; stroke:#0062b1; stroke-width:2.86px;"/><g><text transform="translate(77.14 292.49)" style="fill:#0062b1; font-family:Helvetica, Helvetica; font-size:15.2px; isolation:isolate;"><tspan x="0" y="0">email</tspan></text><g><path d="m72.66,298.59h45.29c4.53,0,8.21,3.67,8.21,8.21h0c0,4.53-3.67,8.21-8.21,8.21h-45.29c-4.53,0-8.21-3.67-8.21-8.21h0c0-4.53,3.67-8.21,8.21-8.21Z" style="fill:#0062b1; stroke:#0062b1; stroke-miterlimit:1.7; stroke-width:1.22px;"/><text transform="translate(72.66 310.18)" style="fill:#fff; font-family:Helvetica, Helvetica; font-size:12.16px; isolation:isolate;"><tspan x="0" y="0">Channel</tspan></text></g></g></g><g><circle cx="808.5" cy="42.11" r="40.68" style="fill:#f44e3b; stroke:#9f0500; stroke-width:2.86px;"/><g><text transform="translate(777.44 37.62)" style="fill:#fff; font-family:Helvetica, Helvetica; font-size:14.89px; isolation:isolate;"><tspan x="0" y="0">77a06a7f</tspan></text><g><path d="m785.65,43.6h45.7c4.44,0,8.04,3.6,8.04,8.04h0c0,4.44-3.6,8.04-8.04,8.04h-45.7c-4.44,0-8.04-3.6-8.04-8.04h0c0-4.44,3.6-8.04,8.04-8.04Z" style="fill:#9f0500; stroke:#9f0500; stroke-miterlimit:1.67; stroke-width:1.19px;"/><text transform="translate(785.65 54.96)" style="fill:#fff; font-family:Helvetica, Helvetica; font-size:11.92px; isolation:isolate;"><tspan x="0" y="0">Identifier</tspan></text></g></g></g><rect x="0" y="26.78" width="31.94" height="31.94" rx="6.85" ry="6.85" style="fill:#3938f6;"/><text transform="translate(8.42 52.36)" style="fill:#fff; font-family:Helvetica-Bold, Helvetica; font-size:27.16px; font-weight:700;"><tspan x="0" y="0">1</tspan></text><rect x="0" y="144.31" width="31.94" height="31.94" rx="6.85" ry="6.85" style="fill:#3938f6;"/><text transform="translate(8.42 169.88)" style="fill:#fff; font-family:Helvetica-Bold, Helvetica; font-size:27.16px; font-weight:700;"><tspan x="0" y="0">2</tspan></text><rect y="280.04" width="31.94" height="31.94" rx="6.85" ry="6.85" style="fill:#3938f6;"/><text transform="translate(8.42 305.62)" style="fill:#fff; font-family:Helvetica-Bold, Helvetica; font-size:27.16px; font-weight:700;"><tspan x="0" y="0">3</tspan></text></g></svg>