<?xml version="1.0" encoding="UTF-8"?><svg id="b" xmlns="http://www.w3.org/2000/svg" viewBox="0 0 1121.87 349.89"><g id="c"><g><g><path d="m1012.66,296.79l-183.76-.92" style="stroke:#009ce0; stroke-miterlimit:4; stroke-width:7.14px;"/><polygon points="828.9 295.87 832.06 285.54 800.99 295.73 831.95 306.22 828.9 295.87" style="fill:#009ce0;"/></g><g><rect x="911.5" y="246.12" width="18.56" height="100.42" rx="3.57" ry="3.57" transform="translate(619.86 1215.62) rotate(-89.71)" style="fill:#fff;"/><text transform="translate(874.13 299.28) rotate(.29)" style="font-family:Helvetica, Helvetica; font-size:11.42px; isolation:isolate;"><tspan x="0" y="0">HAS_IDENTIFIER</tspan></text></g></g><g><g><path d="m567.63,295.91l114.08-.25" style="stroke:#d33115; stroke-miterlimit:4; stroke-width:7.14px;"/><polygon points="681.71 295.66 678.63 306.01 709.63 295.6 678.58 285.33 681.71 295.66" style="fill:#d33115;"/></g><g><rect x="574.46" y="286.51" width="100.42" height="18.56" rx="3.57" ry="3.57" transform="translate(-.65 1.37) rotate(-.13)" style="fill:#fff;"/><text transform="translate(578.06 299.09) rotate(-.13)" style="fill:#9f0500; font-family:Helvetica, Helvetica; font-size:11.42px; isolation:isolate;"><tspan x="0" y="0">HAS_IDENTIFIER</tspan></text></g></g><g><g><path d="m476.27,42.11h-130.81" style="stroke:#68bc00; stroke-width:3.57px;"/><polygon points="345.46 42.11 347.43 35.54 327.71 42.11 347.43 48.68 345.46 42.11" style="fill:#68bc00;"/></g><g><rect x="363.29" y="32.83" width="95.15" height="18.56" rx="3.57" ry="3.57" style="fill:#fff;"/><text transform="translate(366.86 45.29)" style="fill:#194d33; font-family:Helvetica, Helvetica; font-size:11.42px; isolation:isolate;"><tspan x="0" y="0">HAS_BEH</tspan><tspan x="53.31" y="0" style="letter-spacing:-.07em;">A</tspan><tspan x="60.09" y="0">VIOR</tspan></text></g></g><g><g><path d="m236.35,42.11H105.54" style="stroke:#009ce0; stroke-width:3.57px;"/><polygon points="105.54 42.11 107.51 35.54 87.79 42.11 107.51 48.68 105.54 42.11" style="fill:#009ce0;"/></g><g><rect x="118.51" y="32.83" width="104.86" height="18.56" rx="3.57" ry="3.57" style="fill:#fff;"/><text transform="translate(122.08 45.29)" style="fill:#0062b1; font-family:Helvetica, Helvetica; font-size:11.42px; isolation:isolate;"><tspan x="0" y="0">HAS_MARKETING</tspan></text></g></g><g><g><path d="m236.35,296.64l-130.81.29" style="stroke:#009ce0; stroke-miterlimit:4; stroke-width:3.57px;"/><polygon points="105.54 296.93 107.49 290.35 87.79 296.97 107.52 303.5 105.54 296.93" style="fill:#009ce0;"/></g><g><rect x="118.51" y="287.51" width="104.86" height="18.56" rx="3.57" ry="3.57" transform="translate(-.65 .38) rotate(-.13)" style="fill:#fff;"/><text transform="translate(122.11 300.09) rotate(-.13)" style="fill:#0062b1; font-family:Helvetica, Helvetica; font-size:11.42px; isolation:isolate;"><tspan x="0" y="0">HAS_MARKETING</tspan></text></g></g><g><g><path d="m567.63,42.11h114.08" style="stroke:#d33115; stroke-width:7.14px;"/><polygon points="681.71 42.11 678.61 52.45 709.63 42.11 678.61 31.77 681.71 42.11" style="fill:#d33115;"/></g><g><rect x="574.46" y="32.83" width="100.42" height="18.56" rx="3.57" ry="3.57" style="fill:#fff;"/><text transform="translate(578.03 45.29)" style="fill:#9f0500; font-family:Helvetica, Helvetica; font-size:11.42px; isolation:isolate;"><tspan x="0" y="0">HAS_IDENTIFIER</tspan></text></g></g><g><g><path d="m476.27,296.11l-130.81.29" style="stroke:#68bc00; stroke-miterlimit:4; stroke-width:3.57px;"/><polygon points="345.46 296.4 347.41 289.83 327.71 296.44 347.44 302.97 345.46 296.4" style="fill:#68bc00;"/></g><g><rect x="363.29" y="286.98" width="95.15" height="18.56" rx="3.57" ry="3.57" transform="translate(-.65 .9) rotate(-.13)" style="fill:#fff;"/><text transform="translate(366.88 299.56) rotate(-.13)" style="fill:#194d33; font-family:Helvetica, Helvetica; font-size:11.42px; isolation:isolate;"><tspan x="0" y="0">HAS_BEH</tspan><tspan x="53.31" y="0" style="letter-spacing:-.07em;">A</tspan><tspan x="60.09" y="0">VIOR</tspan></text></g></g><g><g><path d="m1017.28,274.72l-194.41-83.94" style="stroke:#009ce0; stroke-miterlimit:4; stroke-width:7.14px;"/><polygon points="822.87 190.78 829.82 182.52 797.24 179.71 821.62 201.5 822.87 190.78" style="fill:#009ce0;"/></g><g><rect x="910.8" y="182.54" width="18.56" height="100.42" rx="3.57" ry="3.57" transform="translate(341.68 985.19) rotate(-66.65)" style="fill:#fff;"/><text transform="translate(876 217.18) rotate(23.35)" style="font-family:Helvetica, Helvetica; font-size:11.42px; isolation:isolate;"><tspan x="0" y="0">HAS_IDENTIFIER</tspan></text></g></g><g><g><path d="m480.85,62.06l-141.76,68.8" style="stroke:#68bc00; stroke-miterlimit:4; stroke-width:3.57px;"/><polygon points="339.09 130.86 337.99 124.08 323.13 138.61 343.73 135.91 339.09 130.86" style="fill:#68bc00;"/></g><g><rect x="362.4" y="87.18" width="95.15" height="18.56" rx="3.57" ry="3.57" transform="translate(-.97 188.68) rotate(-25.89)" style="fill:#fff;"/><text transform="translate(371.77 118.53) rotate(-25.89)" style="fill:#194d33; font-family:Helvetica, Helvetica; font-size:11.42px; isolation:isolate;"><tspan x="0" y="0">HAS_BEH</tspan><tspan x="53.31" y="0" style="letter-spacing:-.07em;">A</tspan><tspan x="60.09" y="0">VIOR</tspan></text></g></g><g><g><path d="m562.61,62.93l127.19,65.13" style="stroke:#d33115; stroke-miterlimit:4; stroke-width:7.14px;"/><polygon points="689.8 128.06 682.32 135.85 714.65 140.78 691.75 117.44 689.8 128.06" style="fill:#d33115;"/></g><g><rect x="616.92" y="45.29" width="18.56" height="100.42" rx="3.57" ry="3.57" transform="translate(255.79 609.35) rotate(-62.88)" style="fill:#fff;"/><text transform="translate(583.24 77.07) rotate(27.12)" style="fill:#9f0500; font-family:Helvetica, Helvetica; font-size:11.42px; isolation:isolate;"><tspan x="0" y="0">HAS_IDENTIFIER</tspan></text></g></g><g><circle cx="521.95" cy="42.11" r="40.68" style="fill:#aea1ff; stroke:#653294; stroke-width:2.86px;"/><g><text transform="translate(491.14 37.51)" style="fill:#653294; font-family:Helvetica, Helvetica; font-size:15.26px; isolation:isolate;"><tspan x="0" y="0" style="letter-spacing:-.02em;">W</tspan><tspan x="14.13" y="0">ebview</tspan></text><g><path d="m503.29,43.64h37.31c4.55,0,8.24,3.69,8.24,8.24h0c0,4.55-3.69,8.24-8.24,8.24h-37.31c-4.55,0-8.24-3.69-8.24-8.24h0c0-4.55,3.69-8.24,8.24-8.24Z" style="fill:#653294; stroke:#653294; stroke-miterlimit:1.71; stroke-width:1.22px;"/><text transform="translate(503.29 55.28)" style="fill:#fff; font-family:Helvetica, Helvetica; font-size:12.21px; isolation:isolate;"><tspan x="0" y="0">Device</tspan></text></g></g></g><g><circle cx="1069.05" cy="297.07" r="51.39" style="fill:#009ce0; stroke:#0062b1; stroke-width:2.86px;"/><g><g><text transform="translate(1051.63 282.59)" style="fill:#fff; font-family:Helvetica, Helvetica; font-size:16.07px; isolation:isolate;"><tspan x="0" y="0">Joao</tspan></text><text transform="translate(1042.71 301.87)" style="fill:#fff; font-family:Helvetica, Helvetica; font-size:16.07px; isolation:isolate;"><tspan x="0" y="0">Correia</tspan></text></g><g><path d="m1041.19,308.32h55.71c4.79,0,8.68,3.88,8.68,8.68h0c0,4.79-3.88,8.68-8.68,8.68h-55.71c-4.79,0-8.68-3.88-8.68-8.68h0c0-4.79,3.88-8.68,8.68-8.68Z" style="fill:#0062b1; stroke:#0062b1; stroke-miterlimit:1.8; stroke-width:1.29px;"/><text transform="translate(1041.19 320.57)" style="fill:#fff; font-family:Helvetica, Helvetica; font-size:12.85px; isolation:isolate;"><tspan x="0" y="0">Customer</tspan></text></g></g></g><g><circle cx="755.31" cy="295.5" r="40.68" style="fill:#f44e3b; stroke:#9f0500; stroke-width:2.86px;"/><g><text transform="translate(723.53 291.35)" style="fill:#fff; font-family:Helvetica, Helvetica; font-size:13.77px; isolation:isolate;"><tspan x="0" y="0">C8573621</tspan></text><g><path d="m734.18,296.88h42.25c4.11,0,7.44,3.33,7.44,7.44h0c0,4.11-3.33,7.44-7.44,7.44h-42.25c-4.11,0-7.44-3.33-7.44-7.44h0c0-4.11,3.33-7.44,7.44-7.44Z" style="fill:#9f0500; stroke:#9f0500; stroke-miterlimit:1.54; stroke-width:1.1px;"/><text transform="translate(734.18 307.38)" style="fill:#fff; font-family:Helvetica, Helvetica; font-size:11.02px; isolation:isolate;"><tspan x="0" y="0">Identifier</tspan></text></g></g></g><g><circle cx="521.95" cy="296.01" r="40.68" style="fill:#aea1ff; stroke:#653294; stroke-width:2.86px;"/><g><text transform="translate(491.94 291.08)" style="fill:#653294; font-family:Helvetica, Helvetica; font-size:16.36px; isolation:isolate;"><tspan x="0" y="0">Desktop</tspan></text><g><path d="m501.94,297.65h40.01c4.88,0,8.84,3.96,8.84,8.84h0c0,4.88-3.96,8.84-8.84,8.84h-40.01c-4.88,0-8.84-3.96-8.84-8.84h0c0-4.88,3.96-8.84,8.84-8.84Z" style="fill:#653294; stroke:#653294; stroke-miterlimit:1.83; stroke-width:1.31px;"/><text transform="translate(501.94 310.13)" style="fill:#fff; font-family:Helvetica, Helvetica; font-size:13.09px; isolation:isolate;"><tspan x="0" y="0">Device</tspan></text></g></g></g><g><circle cx="282.03" cy="296.54" r="40.68" style="fill:#a4dd00; stroke:#194d33; stroke-width:2.86px;"/><g><text transform="translate(258.74 291.05)" style="font-family:Helvetica, Helvetica; font-size:18.22px; isolation:isolate;"><tspan x="0" y="0">Order</tspan></text><g><path d="m263.39,298.36h37.28c5.43,0,9.84,4.41,9.84,9.84h0c0,5.43-4.41,9.84-9.84,9.84h-37.28c-5.43,0-9.84-4.41-9.84-9.84h0c0-5.43,4.41-9.84,9.84-9.84Z" style="fill:#194d33; stroke:#194d33; stroke-miterlimit:2.04; stroke-width:1.46px;"/><text transform="translate(263.39 312.27)" style="fill:#fff; font-family:Helvetica, Helvetica; font-size:14.58px; isolation:isolate;"><tspan x="0" y="0">Event</tspan></text></g></g></g><g><circle cx="282.03" cy="158.55" r="40.68" style="fill:#a4dd00; stroke:#194d33; stroke-width:2.86px;"/><g><text transform="translate(252.74 153.34)" style="fill:#194d33; font-family:Helvetica, Helvetica; font-size:17.27px; isolation:isolate;"><tspan x="0" y="0">Sign up</tspan></text><g><path d="m264.36,160.28h35.34c5.15,0,9.33,4.18,9.33,9.33h0c0,5.15-4.18,9.33-9.33,9.33h-35.34c-5.15,0-9.33-4.18-9.33-9.33h0c0-5.15,4.18-9.33,9.33-9.33Z" style="fill:#194d33; stroke:#194d33; stroke-miterlimit:1.94; stroke-width:1.38px;"/><text transform="translate(264.36 173.46)" style="fill:#fff; font-family:Helvetica, Helvetica; font-size:13.82px; isolation:isolate;"><tspan x="0" y="0">Event</tspan></text></g></g></g><g><circle cx="282.03" cy="42.11" r="40.68" style="fill:#a4dd00; stroke:#194d33; stroke-width:2.86px;"/><g><text transform="translate(252.9 36.84)" style="fill:#194d33; font-family:Helvetica, Helvetica; font-size:17.47px; isolation:isolate;"><tspan x="0" y="0">Browse</tspan></text><g><path d="m264.16,43.86h35.74c5.21,0,9.43,4.22,9.43,9.43h0c0,5.21-4.22,9.43-9.43,9.43h-35.74c-5.21,0-9.43-4.22-9.43-9.43h0c0-5.21,4.22-9.43,9.43-9.43Z" style="fill:#194d33; stroke:#194d33; stroke-miterlimit:1.96; stroke-width:1.4px;"/><text transform="translate(264.16 57.19)" style="fill:#fff; font-family:Helvetica, Helvetica; font-size:13.98px; isolation:isolate;"><tspan x="0" y="0">Event</tspan></text></g></g></g><g><circle cx="42.11" cy="42.11" r="40.68" style="fill:#73d8ff; stroke:#0062b1; stroke-width:2.86px;"/><g><text transform="translate(30.29 37.53)" style="fill:#0062b1; font-family:Helvetica, Helvetica; font-size:15.2px; isolation:isolate;"><tspan x="0" y="0">cpc</tspan></text><g><path d="m19.46,43.63h45.29c4.53,0,8.21,3.67,8.21,8.21h0c0,4.53-3.67,8.21-8.21,8.21H19.46c-4.53,0-8.21-3.67-8.21-8.21h0c0-4.53,3.67-8.21,8.21-8.21Z" style="fill:#0062b1; stroke:#0062b1; stroke-miterlimit:1.7; stroke-width:1.22px;"/><text transform="translate(19.46 55.22)" style="fill:#fff; font-family:Helvetica, Helvetica; font-size:12.16px; isolation:isolate;"><tspan x="0" y="0">Channel</tspan></text></g></g></g><g><circle cx="42.11" cy="297.07" r="40.68" style="fill:#73d8ff; stroke:#0062b1; stroke-width:2.86px;"/><g><text transform="translate(23.95 292.49)" style="fill:#0062b1; font-family:Helvetica, Helvetica; font-size:15.2px; isolation:isolate;"><tspan x="0" y="0">email</tspan></text><g><path d="m19.46,298.59h45.29c4.53,0,8.21,3.67,8.21,8.21h0c0,4.53-3.67,8.21-8.21,8.21H19.46c-4.53,0-8.21-3.67-8.21-8.21h0c0-4.53,3.67-8.21,8.21-8.21Z" style="fill:#0062b1; stroke:#0062b1; stroke-miterlimit:1.7; stroke-width:1.22px;"/><text transform="translate(19.46 310.18)" style="fill:#fff; font-family:Helvetica, Helvetica; font-size:12.16px; isolation:isolate;"><tspan x="0" y="0">Channel</tspan></text></g></g></g><g><circle cx="755.31" cy="42.11" r="40.68" style="fill:#f44e3b; stroke:#9f0500; stroke-width:2.86px;"/><g><text transform="translate(724.25 37.62)" style="fill:#fff; font-family:Helvetica, Helvetica; font-size:14.89px; isolation:isolate;"><tspan x="0" y="0">77a06a7f</tspan></text><g><path d="m732.46,43.6h45.7c4.44,0,8.04,3.6,8.04,8.04h0c0,4.44-3.6,8.04-8.04,8.04h-45.7c-4.44,0-8.04-3.6-8.04-8.04h0c0-4.44,3.6-8.04,8.04-8.04Z" style="fill:#9f0500; stroke:#9f0500; stroke-miterlimit:1.67; stroke-width:1.19px;"/><text transform="translate(732.46 54.96)" style="fill:#fff; font-family:Helvetica, Helvetica; font-size:11.92px; isolation:isolate;"><tspan x="0" y="0">Identifier</tspan></text></g></g></g><g><circle cx="755.31" cy="161.61" r="40.68" style="fill:#f44e3b; stroke:#9f0500; stroke-width:2.86px;"/><g><text transform="translate(723.61 157.41)" style="fill:#fff; font-family:Helvetica, Helvetica; font-size:13.91px; isolation:isolate;"><tspan x="0" y="0">emailhash</tspan></text><g><path d="m733.97,163h42.67c4.15,0,7.51,3.36,7.51,7.51h0c0,4.15-3.36,7.51-7.51,7.51h-42.67c-4.15,0-7.51-3.36-7.51-7.51h0c0-4.15,3.36-7.51,7.51-7.51Z" style="fill:#9f0500; stroke:#9f0500; stroke-miterlimit:1.56; stroke-width:1.11px;"/><text transform="translate(733.97 173.6)" style="fill:#fff; font-family:Helvetica, Helvetica; font-size:11.12px; isolation:isolate;"><tspan x="0" y="0">Identifier</tspan></text></g></g></g></g></svg>